<?xml version="1.0" standalone="no"?>
<!DOCTYPE svg PUBLIC "-//W3C//DTD SVG 20010904//EN"
 "http://www.w3.org/TR/2001/REC-SVG-20010904/DTD/svg10.dtd">
<svg version="1.0" xmlns="http://www.w3.org/2000/svg"
 width="566.000000pt" height="566.000000pt" viewBox="0 0 566.000000 566.000000"
 preserveAspectRatio="xMidYMid meet">

<g transform="translate(0.000000,566.000000) scale(0.100000,-0.100000)"
fill="#000000" stroke="none">
<path d="M2690 5484 c-154 -11 -386 -43 -470 -64 -19 -5 -64 -16 -100 -25
-330 -84 -650 -232 -935 -436 -44 -32 -95 -70 -114 -86 l-34 -29 18 -31 c14
-24 27 -32 57 -36 41 -6 108 -49 108 -71 0 -7 9 -23 20 -36 11 -13 20 -27 20
-32 0 -4 8 -8 19 -8 17 0 58 -32 119 -92 13 -13 30 -22 39 -20 28 6 83 -20
109 -51 26 -32 89 -54 100 -35 3 4 -12 8 -34 8 -31 0 -41 5 -52 24 -7 13 -28
32 -46 42 -30 17 -33 20 -18 31 14 10 11 12 -15 11 -17 -1 -31 -5 -31 -11 0
-5 -8 0 -17 12 -15 18 -38 27 -76 30 -5 1 -6 4 -3 9 2 4 54 8 115 9 93 2 109
0 105 -12 -4 -8 -11 -12 -18 -9 -6 3 -3 -1 7 -9 18 -15 18 -15 0 -20 -10 -3 2
-4 26 -3 50 2 66 22 27 32 -34 8 -33 24 2 25 15 0 59 1 97 2 78 3 107 -6 99
-28 -6 -16 -44 -21 -44 -6 0 4 -11 6 -25 3 -14 -2 -25 -8 -25 -12 0 -5 -10 -6
-22 -3 -13 3 -20 3 -17 -1 4 -4 40 -9 80 -10 41 -2 94 -6 119 -9 25 -3 60 -1
78 4 24 8 37 8 48 -2 12 -10 19 -9 37 9 12 12 16 22 9 22 -7 0 -12 5 -12 11 0
5 8 9 18 8 9 -1 24 1 33 5 8 4 71 5 140 4 90 -3 115 -6 92 -12 -18 -5 -33 -16
-36 -28 -5 -18 -1 -19 101 -14 59 3 121 5 139 5 22 1 31 5 27 14 -11 30 41 39
215 40 178 1 208 -5 181 -38 -11 -13 -7 -15 32 -15 36 0 47 4 57 23 9 18 21
22 62 24 44 2 49 0 39 -12 -7 -8 -21 -15 -31 -15 -27 0 -24 -20 4 -21 12 -1
60 -1 107 0 47 1 100 -3 118 -8 19 -6 32 -6 32 0 0 5 7 9 15 9 22 0 18 18 -5
22 -15 2 -17 7 -10 18 8 13 13 13 40 -2 31 -18 31 -18 24 4 -5 17 -3 20 11 15
9 -4 20 -7 23 -7 4 0 1 -4 -6 -8 -7 -5 -10 -16 -6 -25 5 -14 22 -17 109 -17
73 0 105 4 109 13 5 10 7 10 12 0 4 -10 42 -13 138 -13 87 0 136 -4 144 -12 8
-8 15 -8 28 3 15 12 17 12 13 0 -3 -7 -20 -19 -38 -25 -19 -6 -41 -22 -50 -36
l-16 -25 29 23 c16 12 39 22 52 22 28 0 63 54 41 64 -6 3 0 3 14 0 20 -4 30 0
42 20 10 14 17 36 17 48 0 33 45 95 83 114 59 31 147 9 147 -36 0 -19 1 -19
35 1 25 15 47 20 75 17 39 -3 41 -2 61 43 21 45 61 79 94 79 25 0 -58 67 -213
171 -432 290 -957 453 -1491 463 -86 2 -176 1 -201 0z m1029 -900 c3 -15 1
-16 -11 -6 -8 6 -18 9 -21 6 -3 -3 -11 -3 -18 2 -9 5 -7 9 7 15 26 10 38 6 43
-17z m345 9 c-9 -6 -21 -10 -28 -7 -6 2 -21 -5 -33 -16 l-22 -20 2 30 c2 30 3
31 50 28 39 -3 45 -5 31 -15z m-2164 -3 c0 -5 -7 -10 -15 -10 -8 0 -15 5 -15
10 0 6 7 10 15 10 8 0 15 -4 15 -10z m85 0 c3 -6 -1 -13 -9 -16 -21 -8 -66 3
-66 16 0 13 67 13 75 0z m42 4 c-3 -3 -12 -4 -19 -1 -8 3 -5 6 6 6 11 1 17 -2
13 -5z m493 2 c0 -9 -30 -14 -35 -6 -4 6 3 10 14 10 12 0 21 -2 21 -4z m1067
-2 c-3 -3 -12 -4 -19 -1 -8 3 -5 6 6 6 11 1 17 -2 13 -5z"/>
<path d="M4634 4745 c-17 -8 -34 -23 -37 -34 -4 -15 -13 -21 -34 -21 -33 0
-73 -25 -73 -46 0 -8 -13 -17 -29 -20 -41 -8 -69 -40 -51 -57 10 -10 12 -9 7
6 -6 15 -3 17 16 11 12 -4 30 -7 40 -6 13 0 17 -7 17 -31 0 -37 8 -30 43 36
14 26 29 48 33 48 5 -1 9 4 9 11 0 6 6 13 13 16 6 2 12 -1 12 -7 0 -6 7 -11
15 -11 8 0 15 8 15 18 0 9 11 36 25 60 26 46 25 47 -21 27z"/>
<path d="M1645 4590 c-4 -6 -3 -16 3 -22 6 -6 12 -6 17 2 4 6 3 16 -3 22 -6 6
-12 6 -17 -2z"/>
<path d="M727 4546 c-16 -20 -21 -34 -14 -35 19 -4 189 -9 185 -6 -2 1 -35 19
-75 38 l-71 36 -25 -33z"/>
<path d="M2110 4550 c-8 -5 -10 -10 -5 -10 6 0 17 5 25 10 8 5 11 10 5 10 -5
0 -17 -5 -25 -10z"/>
<path d="M4376 4535 c-16 -12 -17 -15 -4 -15 8 0 21 7 28 15 16 19 1 19 -24 0z"/>
<path d="M4228 4478 c-11 -11 -33 -18 -57 -18 -22 0 -44 -6 -51 -15 -7 -8 -28
-17 -49 -21 -60 -11 -71 -23 -20 -24 25 0 54 7 65 15 10 8 33 15 51 15 17 0
34 4 37 9 3 5 21 12 40 15 18 4 41 14 49 24 16 17 15 18 -16 18 -17 0 -40 -8
-49 -18z"/>
<path d="M3868 4483 c7 -3 16 -2 19 1 4 3 -2 6 -13 5 -11 0 -14 -3 -6 -6z"/>
<path d="M800 4470 c0 -5 4 -10 9 -10 6 0 13 5 16 10 3 6 -1 10 -9 10 -9 0
-16 -4 -16 -10z"/>
<path d="M988 4473 c6 -2 18 -2 25 0 6 3 1 5 -13 5 -14 0 -19 -2 -12 -5z"/>
<path d="M3812 4452 c-15 -16 -34 -31 -42 -35 -12 -4 -12 -6 -1 -6 8 -1 29 15
48 34 19 19 31 35 27 35 -3 0 -18 -13 -32 -28z"/>
<path d="M1665 4460 c-3 -6 1 -7 9 -4 18 7 21 14 7 14 -6 0 -13 -4 -16 -10z"/>
<path d="M1725 4462 c31 -10 50 -25 68 -52 9 -13 17 -19 17 -11 0 21 -60 71
-84 70 -20 -1 -20 -1 -1 -7z"/>
<path d="M3719 4383 c-13 -16 -12 -17 4 -4 16 13 21 21 13 21 -2 0 -10 -8 -17
-17z"/>
<path d="M1818 4363 c7 -3 16 -2 19 1 4 3 -2 6 -13 5 -11 0 -14 -3 -6 -6z"/>
<path d="M1880 4346 c0 -2 8 -10 18 -17 15 -13 16 -12 3 4 -13 16 -21 21 -21
13z"/>
<path d="M1928 4333 c6 -2 18 -2 25 0 6 3 1 5 -13 5 -14 0 -19 -2 -12 -5z"/>
<path d="M889 3931 c-68 -66 -145 -140 -170 -165 -25 -25 -61 -52 -81 -60 -19
-8 -41 -22 -48 -31 -7 -9 -38 -32 -68 -52 -48 -32 -58 -35 -83 -26 -22 9 -31
8 -40 -3 -35 -42 -122 -76 -224 -88 -14 -2 -21 -11 -23 -32 -1 -16 1 -24 5
-19 4 6 21 19 37 29 25 16 41 17 118 11 86 -6 89 -6 120 20 23 20 33 23 39 14
5 -9 29 5 83 49 42 34 84 62 94 62 18 0 52 29 52 44 0 3 -12 -1 -26 -11 -26
-17 -27 -17 -16 2 20 38 352 358 352 340 0 -16 -52 -110 -82 -147 -17 -21 -28
-41 -25 -44 5 -5 65 74 86 114 20 37 29 24 14 -20 -8 -22 -18 -49 -24 -60 -6
-11 -6 -18 0 -18 5 0 12 9 16 19 3 11 13 25 21 32 13 10 15 7 13 -27 -2 -38
-55 -141 -67 -129 -8 7 -62 -46 -62 -61 0 -14 -107 -114 -122 -114 -19 0 11
-28 51 -47 33 -16 42 -17 57 -6 9 7 14 16 11 20 -4 3 -13 -1 -20 -10 -10 -14
-15 -14 -30 -2 -18 13 -17 14 7 30 14 10 26 22 26 27 0 5 -10 2 -22 -6 -12 -9
-29 -16 -37 -16 -21 0 69 90 97 97 12 3 22 12 22 20 0 9 15 33 33 53 75 87 75
88 75 141 1 28 3 54 6 56 3 3 -1 18 -9 34 -8 15 -15 44 -15 64 0 19 -4 35 -8
35 -5 0 -65 -54 -133 -119z m-454 -363 c-8 -26 -48 -62 -53 -48 -4 11 39 70
51 70 4 0 5 -10 2 -22z"/>
<path d="M2592 3931 c-29 -34 -60 -61 -68 -61 -8 0 -14 -4 -14 -9 0 -5 -44
-55 -98 -110 -102 -106 -124 -117 -157 -81 -19 20 -19 20 -55 -15 -20 -19 -43
-35 -51 -35 -9 0 -37 -16 -62 -35 -26 -20 -57 -40 -69 -45 -14 -5 -17 -9 -7
-9 8 -1 38 15 65 34 27 19 52 35 57 35 10 0 -17 -52 -56 -109 -23 -34 -26 -41
-10 -30 35 24 113 99 113 108 0 5 12 30 26 55 24 43 28 46 43 32 37 -34 87
-17 131 42 40 54 51 63 66 58 5 -2 20 16 33 39 15 28 33 47 51 54 16 5 35 22
43 38 15 29 54 69 61 62 2 -2 8 -42 14 -89 10 -76 9 -88 -7 -110 -30 -44 -34
-56 -6 -26 18 20 30 25 37 18 12 -12 0 -38 -53 -109 -50 -67 -50 -77 1 -28
l40 39 1 -29 c2 -52 -2 -69 -24 -92 -21 -23 -11 -33 11 -11 19 19 14 -2 -8
-29 -21 -27 -27 -48 -10 -38 6 3 10 2 10 -3 0 -13 -61 -72 -75 -72 -6 0 -20
-7 -31 -15 -17 -14 -15 -14 20 0 50 19 53 19 31 -5 -10 -11 -13 -20 -7 -20 7
0 12 -5 12 -11 0 -6 -9 -8 -20 -4 -11 4 -20 3 -19 -2 4 -24 -4 -22 -33 6 -38
37 -52 32 -16 -7 24 -25 108 -193 108 -215 0 -18 -26 12 -53 62 -15 27 -25 55
-22 62 2 8 -12 37 -32 64 -28 38 -38 46 -41 32 -2 -10 6 -34 17 -53 27 -46 26
-50 -5 -25 -27 22 -60 29 -49 11 3 -5 1 -10 -5 -10 -7 0 -10 7 -7 15 4 8 1 17
-5 21 -8 5 -9 -9 -5 -49 6 -63 -7 -78 -17 -19 -10 63 -7 102 9 108 8 4 15 12
15 20 0 7 9 20 21 28 25 17 16 40 -13 33 -14 -4 -8 7 21 39 57 60 51 69 -7 11
-26 -26 -54 -47 -63 -47 -8 0 -31 -11 -51 -25 -20 -14 -41 -25 -46 -25 -4 0
-24 -16 -43 -36 -40 -42 -64 -56 -102 -60 -15 -2 -37 -13 -49 -24 -26 -24 -41
-25 -58 -5 -6 8 -15 14 -18 13 -14 -4 -81 35 -123 70 -39 33 -42 34 -26 10 24
-38 22 -55 -4 -32 -22 19 -22 19 -15 -8 9 -38 0 -35 -24 10 -12 20 -19 29 -16
20 3 -10 2 -18 -2 -18 -10 0 -52 67 -52 83 0 17 -29 57 -41 57 -16 0 -10 -48
11 -82 26 -43 26 -62 0 -23 -11 17 -20 26 -20 20 0 -5 -10 9 -21 33 -21 42
-22 42 -45 27 -22 -14 -25 -14 -30 -1 -3 9 -14 18 -23 21 -10 3 -23 17 -30 32
-7 14 -21 36 -31 47 -11 12 -29 32 -41 46 l-21 25 17 -30 c10 -16 25 -39 35
-50 17 -20 60 -92 60 -101 0 -16 -56 37 -78 75 -19 33 -28 41 -30 28 -2 -9 -8
-14 -14 -11 -7 4 -8 2 -4 -5 4 -6 10 -9 14 -7 4 2 15 -7 25 -20 11 -14 13 -24
7 -24 -18 0 -70 40 -70 54 0 7 -10 22 -23 34 -20 19 -24 20 -24 5 0 -20 99
-117 142 -140 45 -24 123 -90 190 -163 l60 -64 -50 36 c-27 19 -61 39 -74 43
-21 6 -23 5 -17 -11 9 -23 3 -17 -53 58 -40 54 -71 79 -71 57 0 -5 -11 -14
-25 -19 -14 -5 -25 -14 -25 -20 0 -7 -6 -7 -20 0 -11 6 -25 8 -30 5 -6 -3 -10
-1 -10 4 0 6 5 11 10 11 17 0 11 26 -10 45 -11 10 -20 23 -20 30 0 6 -16 29
-35 51 -19 21 -35 34 -35 28 0 -6 -13 -31 -30 -55 -16 -24 -30 -53 -30 -64 0
-17 4 -15 26 13 14 17 32 32 39 32 8 0 17 5 21 12 5 8 2 9 -11 4 -15 -5 -16
-4 -5 8 10 13 14 14 26 1 22 -21 -9 -83 -61 -123 -50 -38 -59 -40 -49 -10 6
21 5 21 -10 9 -13 -11 -22 -12 -44 -2 -19 9 -14 1 21 -29 53 -47 64 -73 16
-38 -23 17 -33 19 -36 10 -3 -7 -16 10 -30 38 -28 57 -62 85 -91 76 -11 -4
-24 0 -32 9 -7 8 -21 15 -31 15 -10 0 -29 15 -41 33 -23 32 -65 49 -54 20 3
-8 1 -11 -4 -8 -6 3 -10 14 -10 24 0 22 -30 51 -53 51 -9 0 -17 -7 -17 -15 0
-21 -10 -19 -44 13 -29 25 -29 25 -11 2 11 -14 31 -37 44 -52 14 -16 20 -28
14 -28 -6 0 -29 21 -51 46 l-40 47 -30 -34 c-37 -41 -55 -31 -23 12 22 29 22
32 7 64 -9 18 -13 40 -10 49 6 17 20 21 26 9 2 -5 19 -16 38 -26 l35 -18 -28
21 c-32 26 -34 41 -6 66 23 21 53 73 46 80 -2 3 -21 -16 -42 -42 -21 -25 -50
-54 -66 -63 -15 -9 -49 -41 -75 -71 -45 -52 -36 -48 29 9 l27 25 0 -27 c0 -14
8 -31 18 -36 15 -9 15 -10 0 -11 -9 0 -28 -21 -42 -46 -28 -50 -31 -58 -18
-50 5 3 6 -8 4 -25 -2 -16 -9 -29 -14 -29 -6 0 -7 11 -4 25 7 25 6 26 -22 11
-16 -8 -34 -21 -41 -30 -16 -19 -100 -72 -127 -80 -17 -5 -23 -2 -28 18 -4 15
-17 28 -37 35 -37 13 -48 7 -141 -71 -38 -32 -71 -58 -74 -58 -12 0 19 39 68
85 100 95 106 99 122 86 8 -6 35 -14 60 -17 39 -5 50 -2 78 20 49 39 68 59 63
64 -3 3 -18 -7 -33 -21 -16 -15 -43 -32 -62 -37 -31 -9 -35 -7 -72 33 l-40 42
26 -42 c33 -54 33 -60 0 -34 -15 12 -31 21 -36 21 -5 0 -47 -30 -92 -67 l-83
-68 -11 -65 c-6 -36 -14 -85 -18 -110 -3 -25 -8 -54 -10 -65 -7 -33 -5 -405 1
-416 4 -5 8 -36 9 -69 1 -32 8 -65 15 -73 7 -9 8 -18 3 -21 -10 -6 8 -137 26
-198 5 -18 15 -60 23 -93 7 -33 16 -67 20 -76 5 -9 10 -27 13 -40 15 -83 150
-389 232 -529 37 -63 142 -220 153 -230 4 -3 19 -23 35 -45 62 -84 249 -285
338 -362 370 -323 709 -502 1208 -638 8 -2 52 -12 98 -21 l83 -17 32 30 c18
16 51 44 75 62 23 18 42 37 42 43 0 6 -6 5 -15 -2 -11 -9 -19 -10 -27 -2 -16
16 1 34 24 26 17 -5 20 -3 15 11 -4 9 -7 19 -7 21 0 3 -5 2 -11 -1 -17 -11
-58 4 -69 24 -13 25 -5 46 23 59 l22 11 -22 0 c-13 1 -34 18 -54 42 -29 37
-31 42 -16 51 9 5 17 18 17 28 0 13 10 22 32 28 21 5 34 16 37 28 4 23 19 34
48 34 15 0 23 7 25 22 2 16 13 25 38 32 19 6 44 18 54 28 11 10 23 18 26 18 8
0 50 36 91 77 15 14 32 22 38 19 6 -4 28 6 48 23 21 17 42 31 48 31 6 0 21 14
33 30 13 16 29 30 37 30 15 0 35 30 35 52 0 8 -7 5 -18 -8 -27 -32 -341 -229
-360 -226 -24 5 -25 8 -12 31 9 17 8 25 -4 36 -9 10 -17 11 -21 5 -3 -5 -16
-10 -28 -10 -16 0 -18 3 -9 12 17 17 15 45 -3 45 -8 0 -17 -13 -20 -29 -4 -15
-11 -26 -16 -23 -5 3 -18 1 -30 -5 -19 -10 -20 -9 -15 8 4 12 2 24 -5 28 -9 5
-10 2 -6 -9 3 -10 2 -17 -3 -17 -6 0 -10 -20 -10 -45 0 -39 -3 -45 -21 -45
-19 0 -19 1 -5 16 16 15 13 39 -4 29 -5 -3 -12 0 -15 6 -5 7 -12 3 -22 -10
-15 -22 -43 -29 -43 -11 0 7 -6 7 -19 0 -11 -5 -42 -9 -70 -8 -28 1 -56 -3
-62 -9 -9 -9 -7 -12 7 -11 40 3 94 -13 94 -27 0 -17 39 -20 84 -5 17 5 43 12
57 15 21 4 28 12 33 38 3 19 12 34 19 34 6 0 33 4 60 8 39 5 47 4 47 -9 0 -9
-8 -17 -17 -18 -10 0 -23 -2 -29 -2 -6 -1 -19 -9 -28 -19 -10 -9 -24 -17 -32
-17 -8 0 -14 -6 -14 -13 0 -22 -34 -47 -71 -51 -53 -6 -55 -7 -34 -16 l20 -8
-20 -7 c-11 -3 -28 -10 -37 -15 -14 -8 -16 -5 -11 25 4 23 2 35 -6 35 -6 0
-11 -11 -11 -24 0 -14 -4 -28 -10 -31 -5 -3 -7 0 -4 8 3 8 -2 17 -11 21 -22 8
-36 -1 -28 -19 3 -9 -1 -15 -10 -15 -8 0 -29 -3 -46 -6 -20 -4 -31 -3 -31 5 0
6 3 10 8 10 18 -3 32 2 32 11 0 6 -11 10 -24 10 -13 0 -27 6 -29 13 -3 6 -6
-2 -6 -19 -1 -29 -4 -32 -43 -37 -35 -5 -50 -1 -78 18 -25 17 -43 22 -64 18
-22 -4 -27 -2 -24 8 3 8 15 15 29 17 40 4 103 25 120 39 8 7 20 13 25 13 14 0
346 168 359 181 5 6 -44 -16 -110 -49 -119 -60 -228 -102 -262 -102 -39 0
-213 -81 -205 -95 6 -13 0 -24 -17 -30 -28 -9 -53 5 -46 25 4 12 0 20 -12 23
-10 3 -1 5 19 6 20 0 65 13 100 27 35 14 73 30 85 35 l23 8 -21 35 c-11 19
-26 34 -32 32 -7 -1 -9 -1 -4 1 13 8 8 23 -8 23 -9 0 -14 8 -12 22 2 24 14 31
212 113 50 21 95 42 100 48 12 12 19 15 -169 -63 -116 -47 -151 -58 -157 -48
-14 21 -11 28 17 39 15 5 24 12 21 16 -4 3 -18 -2 -33 -12 -22 -14 -38 -16
-98 -10 -107 11 -120 22 -20 17 l89 -4 0 167 0 168 55 18 c30 10 57 16 59 13
3 -2 4 -72 3 -154 -2 -93 1 -150 7 -150 16 0 23 81 19 192 -5 114 -3 128 18
128 8 0 28 7 45 15 l30 16 -3 -148 -3 -148 -33 -11 c-17 -5 -38 -16 -45 -23
-10 -12 -8 -13 8 -6 11 4 35 11 53 17 l32 9 1 122 c1 67 1 139 0 160 -2 21 2
37 8 37 7 0 11 -47 11 -143 l0 -144 39 -11 c47 -15 91 -15 91 -2 0 6 9 10 20
10 11 0 20 -4 20 -10 0 -5 24 -10 53 -10 36 0 47 3 37 10 -8 5 -11 12 -7 16 4
4 13 2 19 -4 18 -18 30 -14 23 8 -5 14 -2 20 10 20 9 0 30 7 47 16 22 11 33
13 41 5 8 -8 8 -11 -1 -11 -7 0 -12 -4 -12 -9 0 -11 116 13 200 41 46 16 58
23 42 26 -12 2 -35 10 -50 19 -27 15 -27 15 16 9 24 -4 55 -14 68 -23 33 -21
21 -33 -76 -67 -41 -15 -96 -37 -122 -50 -25 -12 -52 -20 -60 -16 -7 4 -34 5
-60 2 l-46 -4 10 -31 c6 -18 10 -40 10 -49 -1 -30 16 -30 70 -1 33 18 45 29
35 31 -53 10 16 52 183 110 47 16 119 42 160 57 71 25 75 26 87 8 9 -11 16
-14 21 -8 4 6 21 8 37 5 20 -4 26 -8 18 -13 -20 -13 -15 -26 7 -20 11 3 17 10
13 16 -4 7 10 8 43 4 41 -6 46 -4 32 6 -11 9 -14 18 -7 28 6 9 9 10 9 2 0 -9
7 -10 26 -3 14 6 29 8 32 6 4 -2 7 15 7 39 0 28 -4 41 -12 38 -11 -4 -28 -50
-25 -65 3 -10 -10 -10 -27 1 -8 5 -11 16 -8 25 10 25 -19 30 -41 8 -13 -13
-28 -18 -40 -15 -15 4 -21 -1 -25 -19 -4 -21 -4 -20 -6 5 -1 23 3 27 24 27 14
0 25 5 25 11 0 5 5 7 10 4 6 -3 10 -2 10 3 0 6 -18 8 -42 5 -30 -5 -39 -3 -34
6 5 7 28 11 60 10 45 -2 72 7 219 74 179 82 217 96 217 78 0 -6 -4 -11 -10
-11 -5 0 -7 -6 -4 -14 3 -8 1 -17 -5 -21 -6 -3 -11 -19 -11 -35 0 -23 -15 -40
-36 -40 -2 0 -4 16 -4 35 0 44 -20 46 -21 3 -1 -31 -1 -32 -9 -8 -8 24 -8 24
-9 -6 -1 -29 -16 -54 -33 -54 -4 0 -8 21 -9 48 0 38 -2 43 -9 25 -5 -13 -14
-23 -20 -23 -5 0 -10 -9 -10 -21 0 -25 -17 -59 -30 -59 -5 0 -10 15 -12 32 -3
28 -5 30 -12 13 -14 -35 -27 -61 -22 -42 9 29 -11 19 -22 -12 l-10 -29 31 10
c53 17 210 79 239 94 18 10 34 11 51 5 23 -9 24 -9 21 52 -1 34 -3 68 -3 76
-1 7 -7 11 -16 8 -8 -4 -17 -2 -20 3 -4 6 3 10 14 10 12 0 21 7 21 15 0 9 15
22 33 30 l32 15 -45 -5 -45 -6 30 15 c71 34 114 48 125 41 7 -4 13 1 17 13 4
18 7 19 30 7 40 -21 70 -2 75 46 2 22 -1 39 -6 39 -5 0 -6 3 -3 6 4 4 14 1 22
-6 13 -11 13 -15 3 -22 -8 -6 -2 -7 17 -3 81 15 78 15 65 0 -7 -8 -24 -15 -39
-15 -20 0 -23 -2 -11 -10 13 -8 12 -10 -4 -10 -11 0 -16 -3 -13 -7 8 -7 87 26
87 37 0 6 26 18 140 63 36 14 56 26 45 27 -11 0 -26 9 -33 20 -15 24 -14 24
27 4 32 -16 120 -15 278 2 49 5 64 4 68 -7 4 -10 23 -13 73 -12 37 2 108 3
157 4 60 1 82 4 65 9 -24 8 -24 8 7 9 25 1 32 -4 36 -21 l4 -23 2 23 c2 39 17
24 17 -18 0 -28 -4 -40 -14 -40 -8 0 -12 6 -9 14 8 20 -20 29 -31 10 -5 -8
-21 -16 -37 -18 -35 -4 -40 -15 -21 -41 13 -18 28 -20 153 -22 76 -1 130 1
121 3 -25 7 -23 23 2 17 11 -3 20 -9 20 -13 0 -4 41 -10 91 -12 50 -3 94 -10
98 -16 10 -16 131 -8 142 9 14 22 11 26 -21 27 -17 0 -28 -4 -25 -9 8 -12 -96
-12 -115 1 -11 7 -3 10 30 11 39 1 42 2 20 10 -17 6 -2 7 50 5 54 -3 68 -1 50
6 -13 5 -33 18 -43 28 -10 11 -28 20 -41 20 -13 0 -74 11 -135 25 -62 14 -133
28 -159 31 -25 3 -50 7 -53 10 -4 2 -10 -4 -12 -13 -4 -17 -5 -17 -6 0 0 9 -5
17 -9 17 -4 0 -6 -16 -4 -35 3 -27 1 -35 -12 -35 -12 0 -15 10 -14 45 0 35 4
45 17 45 66 -1 419 -71 475 -94 51 -21 52 -21 66 17 7 17 19 46 26 62 7 17 22
62 32 100 32 113 32 113 11 108 -13 -4 -19 0 -19 11 0 14 -3 14 -22 -4 -29
-27 -98 -28 -98 -2 0 33 21 42 102 42 45 0 78 4 78 10 0 6 -11 10 -24 10 -25
0 -36 21 -36 73 0 15 -6 27 -13 27 -8 0 -12 -15 -10 -47 1 -37 0 -41 -5 -19
-6 24 -9 26 -18 15 -6 -8 -14 -21 -17 -29 -4 -10 -6 -7 -6 8 -1 17 -7 22 -26
22 -14 0 -25 5 -25 10 0 6 20 10 45 10 47 0 58 12 28 29 -14 8 -9 11 27 12 44
2 44 2 8 6 -56 6 -46 23 12 23 30 0 50 -4 50 -11 0 -6 6 -9 14 -6 8 3 17 1 19
-6 2 -7 6 3 9 21 4 31 -4 43 -17 22 -12 -19 -99 -12 -123 10 -27 25 -19 50 17
51 l26 0 -23 10 c-13 5 -27 7 -32 4 -4 -2 -7 16 -6 40 1 29 6 45 14 45 6 0 12
4 12 9 0 14 -34 9 -49 -6 -9 -10 -9 -13 3 -13 12 0 14 -10 9 -52 -3 -29 -11
-56 -17 -61 -21 -14 -50 -2 -57 23 -6 23 -7 22 -8 -8 -1 -20 3 -31 9 -27 6 3
10 1 10 -5 0 -7 -29 -10 -83 -9 l-83 1 4 29 c2 16 0 29 -6 29 -5 0 -8 -17 -6
-37 4 -54 -5 -93 -22 -93 -11 0 -14 7 -10 23 4 13 0 10 -8 -8 -14 -29 -13 -30
13 -33 24 -3 27 -7 28 -43 1 -24 -2 -37 -8 -33 -5 3 -16 0 -24 -6 -8 -6 -19
-9 -25 -5 -5 3 -19 3 -30 0 -17 -5 -20 -15 -20 -71 l0 -64 -40 0 -40 0 0 64
c0 35 -3 71 -6 80 -5 13 2 16 39 16 26 0 48 -5 51 -12 3 -7 4 -2 2 12 -3 14
-8 95 -11 182 -7 175 -11 167 69 170 20 1 33 4 27 7 -11 7 -19 171 -8 171 4 0
11 0 16 0 13 0 20 -42 23 -126 l2 -71 38 0 c30 0 35 2 22 11 -11 8 -14 25 -12
56 3 38 7 45 30 51 60 16 90 -20 51 -63 -18 -20 -5 -25 16 -5 11 10 14 10 18
0 10 -28 18 -10 18 40 l0 52 33 0 c17 0 32 -2 33 -5 0 -3 4 -24 8 -47 6 -28 5
-44 -3 -47 -6 -2 9 -4 34 -4 25 0 36 3 25 5 -29 7 -35 21 -35 81 0 51 0 52 30
52 18 0 29 5 28 12 -2 7 7 14 20 16 20 3 22 -1 22 -39 0 -34 3 -40 12 -31 7 7
20 12 29 12 24 0 33 90 25 249 -9 160 -13 207 -31 306 -8 44 -16 91 -17 105
-4 36 -126 99 -183 93 -37 -3 -46 1 -125 66 l-84 70 -36 -21 c-19 -12 -53 -36
-75 -53 -22 -17 -61 -42 -87 -54 -27 -13 -57 -35 -68 -51 -11 -15 -47 -47 -82
-71 -34 -24 -80 -61 -102 -82 -141 -130 -300 -234 -466 -303 -36 -14 -83 -35
-105 -44 -37 -17 -141 -32 -205 -30 -14 1 -32 1 -40 1 -8 1 -48 -11 -88 -25
-41 -14 -110 -29 -155 -33 -66 -7 -14 -10 268 -17 562 -14 733 -21 700 -30
-16 -4 -40 -12 -52 -18 -11 -6 -26 -7 -32 -3 -7 4 -18 1 -26 -5 -8 -6 -18 -9
-24 -6 -5 3 -22 -1 -37 -9 -16 -8 -38 -15 -50 -15 -11 0 -29 -9 -39 -20 -18
-20 -17 -20 151 -20 l169 0 1 -55 c1 -33 -2 -53 -8 -49 -5 3 -7 8 -4 11 3 3
-3 17 -14 31 -11 13 -17 28 -14 33 3 5 -31 9 -75 9 -66 0 -79 -3 -75 -15 4
-10 25 -15 72 -17 l67 -3 -95 -10 c-52 -5 -85 -11 -72 -13 15 -2 22 -10 22
-27 0 -18 6 -25 28 -28 22 -3 20 -4 -10 -6 -20 0 -39 3 -42 7 -3 5 -19 7 -36
4 -19 -3 -30 0 -30 7 0 9 -29 11 -107 8 -147 -6 -159 -8 -155 -31 2 -11 -1
-15 -7 -11 -6 3 -11 2 -11 -4 0 -6 -25 -8 -62 -5 -44 3 -59 1 -48 -6 13 -8 13
-10 -2 -10 -9 0 -20 5 -23 10 -8 12 -82 13 -89 1 -3 -5 -25 -7 -49 -5 -23 2
-34 1 -24 -2 22 -7 12 -24 -14 -24 -10 0 -19 -4 -19 -10 0 -5 -10 -10 -22 -10
-19 0 -20 -2 -8 -10 10 -7 -15 -8 -76 -4 -99 7 -208 -2 -199 -17 4 -5 -6 -9
-22 -8 -25 0 -26 1 -8 9 12 5 -61 7 -180 5 -136 -2 -178 0 -130 5 39 4 173 11
298 16 202 6 252 13 234 30 -8 8 -52 8 -402 -4 -340 -12 -2062 -18 -2072 -8
-4 3 110 6 253 6 378 0 1012 11 1139 19 61 4 -248 8 -689 9 -510 1 -803 5
-809 11 -9 9 653 19 856 14 35 -1 57 2 57 9 0 7 -102 9 -350 6 -224 -3 -350
-1 -350 5 0 8 -339 5 -477 -3 -1 0 0 -7 4 -16 4 -10 17 -15 42 -14 20 1 56 1
81 0 40 -2 38 -4 -25 -11 -66 -8 -124 -4 -112 7 3 3 2 18 -3 33 l-8 28 412 2
c243 1 415 6 422 12 7 5 85 10 175 11 199 1 155 16 -56 19 -77 1 -192 4 -255
8 l-115 6 151 9 c84 4 175 5 204 1 38 -5 51 -4 46 4 -5 8 -84 11 -272 11 -287
-1 -415 -11 -484 -35 -26 -10 -87 -18 -145 -20 -55 -2 -92 -1 -83 2 23 6 23
23 1 23 -10 0 -13 3 -7 9 5 5 117 16 249 25 195 13 424 16 1218 16 650 0 976
3 972 10 -3 6 -23 10 -43 10 -20 1 -55 7 -77 15 -22 8 -54 15 -72 15 -17 0
-34 4 -37 9 -3 5 -45 9 -93 9 -73 0 -98 4 -145 25 -31 14 -59 23 -61 20 -6 -5
-47 19 -99 61 -21 16 -41 27 -44 23 -3 -3 4 -10 15 -17 22 -11 28 -30 10 -30
-5 0 -7 5 -4 10 3 6 0 10 -8 10 -8 0 -20 7 -27 15 -10 12 -10 15 0 15 9 0 11
10 6 31 -5 27 -4 30 9 19 40 -33 -13 65 -61 112 -20 21 -35 41 -31 44 3 4 39
-15 79 -42 102 -68 139 -87 171 -89 23 -2 26 1 21 19 -3 12 -14 30 -24 41 -19
23 -80 134 -80 147 0 12 55 -47 90 -97 15 -22 46 -55 69 -73 l41 -33 -55 78
c-30 43 -68 96 -84 118 -18 25 -32 59 -36 90 -4 28 -14 65 -21 84 -8 18 -11
37 -8 43 3 5 1 15 -5 22 -8 10 -6 20 9 39 11 14 20 39 20 55 0 17 5 32 10 34
6 2 12 29 13 60 2 55 3 56 21 40 17 -15 17 -13 -2 14 -19 28 -20 33 -7 44 20
16 19 74 0 90 -9 7 -13 20 -10 28 3 7 2 19 -2 25 -4 7 -9 39 -10 72 -2 33 -7
75 -11 94 l-7 33 -53 -61z m-422 -345 c-30 -45 -40 -54 -40 -38 0 12 62 94 67
88 3 -2 -9 -25 -27 -50z m3030 -141 c-8 -9 0 -21 25 -43 19 -17 35 -35 35 -38
0 -4 -10 2 -22 13 -13 11 -29 22 -37 25 -7 2 -19 19 -26 38 -7 19 -16 44 -20
55 -6 16 -1 14 23 -9 23 -21 29 -33 22 -41z m46 21 c10 -8 17 -17 14 -19 -3
-3 -16 3 -29 14 -27 22 -15 26 15 5z m-4541 -58 c45 -56 51 -63 59 -76 17 -28
-6 -8 -54 48 -29 33 -47 60 -42 60 6 0 22 -15 37 -32z m4574 -15 c2 -2 2 -5
-1 -8 -2 -3 -18 10 -34 28 l-29 32 30 -25 c17 -14 32 -26 34 -27z m-4638 15
c11 -21 11 -22 -4 -9 -10 7 -17 17 -17 22 0 15 9 10 21 -13z m1745 -43 c6 -15
-33 -91 -62 -119 -8 -9 -25 -16 -37 -16 -12 0 -49 -20 -82 -45 -42 -32 -66
-43 -83 -40 -33 6 -41 15 -14 15 12 0 21 4 19 8 -4 13 52 74 63 67 5 -3 8 0 5
7 -5 15 49 67 115 109 51 32 68 36 76 14z m2945 -22 l34 -37 -34 25 c-19 14
-37 31 -39 37 -6 20 2 14 39 -25z m-3951 7 c0 -5 -7 -10 -16 -10 -8 0 -12 5
-9 10 3 6 10 10 16 10 5 0 9 -4 9 -10z m-760 -25 c7 -9 8 -15 2 -15 -5 0 -12
7 -16 15 -3 8 -4 15 -2 15 2 0 9 -7 16 -15z m4654 -24 c-3 -3 -15 6 -27 18
l-22 24 27 -19 c14 -10 24 -21 22 -23z m-4514 -16 c19 -19 32 -35 29 -35 -3 0
-20 16 -39 35 -19 19 -32 35 -29 35 3 0 20 -16 39 -35z m565 5 c-10 -11 -20
-18 -23 -15 -3 3 3 14 13 25 10 11 20 18 23 15 3 -3 -3 -14 -13 -25z m-975
-10 c-8 -5 -17 -7 -19 -4 -3 3 1 9 9 14 8 5 17 7 19 4 3 -3 -1 -9 -9 -14z
m1017 -2 c0 -7 4 -22 8 -33 7 -20 6 -20 -9 -1 -17 21 -21 46 -8 46 5 0 9 -6 9
-12z m-702 -18 c10 -11 16 -20 13 -20 -3 0 -13 9 -23 20 -10 11 -16 20 -13 20
3 0 13 -9 23 -20z m1837 -81 c24 -27 67 -75 96 -106 82 -87 68 -95 -22 -14
-21 20 -36 30 -32 24 14 -25 -12 -12 -30 15 -32 47 -73 132 -64 132 5 0 28
-23 52 -51z m-842 -4 c13 -14 21 -25 18 -25 -2 0 -15 11 -28 25 -13 14 -21 25
-18 25 2 0 15 -11 28 -25z m-342 -55 c39 -38 63 -66 54 -61 -20 11 -139 131
-131 131 4 0 38 -31 77 -70z m1138 -48 c-8 -7 -25 8 -37 31 -11 21 -10 21 15
-2 14 -14 24 -26 22 -29z m-325 -59 c13 -16 12 -17 -3 -4 -10 7 -18 15 -18 17
0 8 8 3 21 -13z m-151 -39 c0 -2 -9 0 -20 6 -11 6 -20 13 -20 16 0 2 9 0 20
-6 11 -6 20 -13 20 -16z m496 -75 c51 -40 54 -44 24 -29 -14 7 -27 16 -30 20
-3 3 -16 14 -30 23 -13 9 -20 17 -14 17 6 0 29 -14 50 -31z m1525 -98 c-8 -5
-23 -8 -34 -5 -36 6 -31 14 9 14 27 0 35 -3 25 -9z m1454 -67 c0 -10 -8 -20
-17 -22 -18 -3 -26 27 -11 42 12 11 28 0 28 -20z m-739 -47 c1 -12 3 -26 3
-32 1 -6 43 -10 106 -10 58 1 105 -1 105 -4 0 -14 -37 -28 -53 -19 -23 12
-156 6 -154 -7 3 -14 24 -35 36 -35 6 0 11 -7 11 -16 0 -8 -4 -12 -10 -9 -6 3
-7 -1 -4 -9 7 -18 24 -22 24 -5 0 5 4 8 10 4 10 -6 2 -35 -10 -35 -5 0 -17 8
-26 18 -17 16 -18 16 -11 -1 4 -10 7 -23 7 -28 0 -6 5 -7 11 -3 6 3 15 0 20
-7 6 -10 9 -11 9 -1 0 7 13 12 30 12 17 0 30 -4 30 -10 0 -23 16 -8 18 17 2
31 18 44 47 41 15 -2 20 -10 19 -33 -2 -56 -11 -90 -22 -89 -46 4 -45 3 -31
21 8 10 9 14 2 10 -6 -4 -15 -2 -20 5 -5 8 -10 -8 -13 -42 -4 -47 -8 -55 -27
-58 -17 -3 -24 3 -29 22 -3 14 -11 26 -16 26 -6 0 -7 -8 -3 -17 4 -10 9 -25
12 -34 3 -11 12 -14 29 -11 14 2 24 0 24 -7 0 -6 -3 -10 -7 -10 -27 4 -43 -3
-43 -21 0 -11 -7 -20 -15 -20 -8 0 -15 -4 -15 -9 0 -5 9 -7 20 -4 11 3 20 1
20 -4 0 -14 -55 -10 -56 5 -1 6 -2 17 -3 22 0 6 -7 10 -15 10 -8 0 -16 5 -18
11 -2 7 -12 7 -31 0 -21 -8 -35 -8 -55 3 -18 9 -34 10 -47 5 -19 -9 -19 -9 2
-5 13 2 24 -2 27 -11 5 -12 1 -14 -17 -9 -18 4 -23 1 -24 -17 -1 -12 -6 -31
-11 -42 -6 -11 -15 -40 -22 -65 -25 -98 -55 -135 -48 -60 2 28 0 40 -9 40 -9
0 -13 -17 -13 -55 0 -54 0 -55 -30 -55 -27 0 -30 3 -30 30 0 17 5 30 11 30 8
0 8 4 0 14 -9 11 -7 15 11 21 20 7 18 9 -14 12 -21 2 -38 8 -38 12 0 16 70 23
87 10 10 -9 17 -9 21 -2 4 5 14 13 22 16 11 5 9 6 -5 6 -65 -3 -63 -6 -71 91
-7 97 -12 106 -19 44 -10 -75 -26 -107 -51 -97 -8 3 -14 12 -14 20 0 12 3 13
14 4 10 -8 16 -9 21 -1 11 18 -3 27 -37 22 -45 -6 -58 -19 -58 -58 0 -35 4
-38 53 -34 15 1 27 -3 27 -9 0 -8 -23 -10 -71 -6 -63 4 -70 3 -59 -10 7 -9 10
-18 6 -22 -3 -3 -6 -1 -6 5 0 6 -7 9 -15 6 -9 -4 -15 -19 -15 -40 l0 -34 -58
2 c-53 3 -58 5 -54 24 2 12 -1 25 -7 28 -7 4 -4 14 7 26 19 23 37 27 29 7 -3
-8 -2 -29 3 -48 4 -19 8 -26 9 -16 1 10 9 17 24 18 21 0 21 1 2 9 l-20 9 20 1
20 1 -20 9 c-17 7 -17 9 -2 9 25 1 21 21 -5 22 -22 2 -22 2 -2 6 16 3 20 9 17
24 -4 14 -8 17 -13 9 -5 -8 -9 -7 -13 4 -4 10 -1 16 8 16 11 0 15 11 15 40 0
42 -3 40 67 43 31 1 43 -19 16 -26 -14 -4 -13 -5 5 -6 16 -1 22 5 22 19 0 19
-9 24 -36 21 -7 -1 -14 6 -18 14 -3 9 -10 13 -16 10 -5 -3 -10 -1 -10 5 0 6 6
13 14 16 7 3 14 17 14 31 0 31 11 39 74 47 27 4 46 11 43 16 -4 6 0 10 7 11 7
0 27 2 43 4 29 4 30 3 29 -30 -2 -32 0 -35 27 -35 26 0 34 9 30 33 0 4 3 7 8
7 5 0 16 3 25 6 11 4 16 1 16 -11 0 -14 3 -15 14 -6 7 6 26 8 44 5 28 -6 31
-4 34 22 4 35 43 43 42 9 -2 -33 -16 -57 -31 -51 -8 3 -12 2 -10 -2 2 -4 7
-16 12 -27 7 -19 8 -18 15 5 5 18 12 24 29 22 12 -1 30 3 39 9 14 8 12 9 -10
4 -27 -5 -28 -4 -26 35 1 22 6 40 12 40 7 0 11 32 10 93 0 50 1 96 4 100 6 12
15 0 18 -26z m-4521 -78 c11 -17 -1 -21 -15 -4 -8 9 -8 15 -2 15 6 0 14 -5 17
-11z m4819 -35 c3 -9 11 -12 18 -8 7 4 1 -6 -14 -22 -23 -25 -28 -39 -30 -97
-2 -66 -2 -67 -31 -67 -18 0 -26 -4 -21 -11 3 -6 17 -9 31 -6 20 4 24 1 20
-14 -3 -11 -2 -17 3 -14 12 8 17 -16 12 -67 -4 -43 -7 -48 -28 -48 -16 0 -24
6 -25 18 -1 9 -3 37 -4 62 -4 67 -4 67 -24 42 -13 -15 -21 -18 -24 -10 -4 10
-8 10 -16 -1 -8 -12 -11 -10 -14 10 -11 55 -5 69 30 69 18 0 33 -4 33 -10 0
-5 8 -10 18 -9 10 0 12 3 5 6 -19 7 -16 73 4 95 9 11 11 18 5 18 -11 0 -17 61
-8 71 12 12 55 7 60 -7z m-4600 0 c28 -11 17 -22 -21 -22 -21 0 -49 6 -63 13
-24 14 -24 14 22 15 25 0 53 -3 62 -6z m352 -7 c2 -2 -4 -11 -14 -20 -21 -19
-115 -31 -109 -13 3 6 10 10 16 8 7 -1 10 1 7 6 -3 5 -43 10 -88 11 -46 1 -87
7 -93 13 -7 7 34 8 134 5 79 -3 145 -8 147 -10z m-261 -27 c3 -6 -1 -7 -9 -4
-18 7 -21 14 -7 14 6 0 13 -4 16 -10z m75 -10 c0 -5 -7 -7 -15 -4 -8 4 -15 8
-15 10 0 2 7 4 15 4 8 0 15 -4 15 -10z m50 0 c0 -5 -4 -10 -10 -10 -5 0 -10 5
-10 10 0 6 5 10 10 10 6 0 10 -4 10 -10z m-215 -10 c3 -5 -1 -10 -9 -10 -9 0
-16 5 -16 10 0 6 4 10 9 10 6 0 13 -4 16 -10z m4430 0 c-3 -5 -13 -10 -21 -10
-8 0 -12 5 -9 10 3 6 13 10 21 10 8 0 12 -4 9 -10z m-4094 -9 c-19 -12 -23
-43 -8 -53 7 -5 3 -8 -11 -8 -20 0 -22 4 -16 23 8 28 23 47 38 47 6 0 5 -4 -3
-9z m3446 -28 c15 -14 17 -73 3 -73 -5 0 -7 -6 -4 -13 3 -8 -6 -18 -21 -25
-14 -6 -25 -16 -25 -21 0 -5 -10 -11 -22 -15 -18 -5 -20 -8 -9 -15 9 -6 10
-11 2 -15 -6 -4 -11 -18 -11 -32 0 -20 -5 -24 -30 -24 -21 0 -30 5 -31 18 -1
16 -2 16 -6 -1 -3 -10 -17 -20 -32 -23 -19 -4 -33 -17 -44 -40 l-17 -34 27 0
c25 0 25 1 9 13 -17 13 -17 14 -1 30 9 9 21 17 26 17 15 0 10 -18 -8 -30 -14
-8 -14 -10 -3 -9 57 5 61 2 58 -53 -2 -41 -7 -54 -20 -56 -15 -3 -18 5 -19 50
-1 29 -4 41 -6 26 -2 -16 -8 -28 -13 -28 -5 0 -7 7 -4 15 9 22 -9 18 -24 -5
-7 -12 -17 -18 -22 -15 -6 4 -8 10 -6 14 3 4 1 13 -5 21 -6 11 -9 6 -9 -17 0
-17 -4 -35 -10 -38 -6 -4 -10 6 -10 24 0 23 -4 29 -15 25 -8 -4 -15 -17 -15
-30 0 -13 -6 -24 -13 -24 -8 0 -12 18 -12 60 0 54 6 73 18 53 2 -5 2 -2 1 5
-2 6 4 12 14 13 10 0 12 3 5 6 -7 2 -13 9 -13 14 0 6 5 7 10 4 6 -3 10 1 10 9
0 9 -7 16 -15 16 -8 0 -14 -3 -14 -7 4 -25 -4 -41 -25 -51 -27 -12 -36 -7 -36
19 0 10 9 20 23 22 12 3 3 3 -20 2 -35 -2 -40 0 -28 11 7 8 25 14 39 14 14 0
27 3 29 8 3 4 -12 7 -33 7 -21 0 -36 -3 -34 -7 3 -4 -5 -12 -16 -18 -11 -6
-19 -16 -17 -22 1 -7 -7 -13 -18 -15 -15 -3 -17 -2 -6 5 9 7 10 12 2 16 -6 4
-11 2 -11 -3 0 -14 -27 -14 -36 0 -3 6 0 15 7 20 11 7 10 9 -3 9 -13 0 -18 -8
-18 -25 0 -20 5 -25 26 -25 19 0 25 -5 22 -17 -4 -23 -38 -30 -38 -9 0 24 -18
19 -22 -6 -2 -12 -9 -23 -15 -26 -9 -2 -13 11 -13 49 0 65 -9 60 -13 -7 l-2
-49 40 -3 c28 -3 43 1 51 13 7 9 15 16 18 16 20 -3 26 1 26 16 0 9 3 14 6 10
10 -10 -7 -47 -22 -47 -8 0 -14 -6 -13 -12 1 -7 -1 -25 -5 -40 -9 -32 -36 -38
-36 -8 0 14 -7 20 -21 20 -11 0 -17 5 -14 10 6 10 -8 13 -57 12 -16 0 -28 4
-28 9 0 5 -4 9 -10 9 -5 0 -10 -9 -10 -21 0 -25 -17 -59 -30 -59 -6 0 -10 8
-10 18 0 14 -2 15 -10 2 -8 -13 -10 -12 -15 1 -8 21 -3 41 12 54 7 5 11 19 8
30 -2 11 -4 23 -4 28 -1 4 -8 7 -16 7 -21 0 -19 20 3 21 12 0 10 3 -8 11 -15
6 -20 12 -12 15 15 6 16 24 1 21 -6 -2 -13 7 -15 20 -3 17 1 22 16 22 11 0 20
6 20 13 0 7 3 8 8 2 11 -16 33 -17 51 -3 14 12 15 11 2 -5 -8 -10 -20 -16 -27
-13 -7 3 -15 -1 -17 -9 -4 -9 5 -14 28 -17 25 -3 31 0 27 11 -7 18 24 40 48
34 14 -4 20 -14 20 -32 0 -23 4 -26 40 -28 22 0 40 3 40 9 0 5 -4 7 -9 4 -13
-9 -39 3 -45 20 -4 10 -2 12 6 8 7 -5 9 -2 6 8 -11 26 8 41 54 41 31 0 44 -4
46 -16 2 -10 -6 -17 -20 -20 -21 -4 -21 -4 4 -6 14 0 28 -7 31 -13 3 -9 9 -8
19 5 8 12 28 18 56 20 50 2 72 -14 52 -38 -11 -13 -10 -14 4 -9 15 6 21 23 16
53 -1 9 4 12 14 8 10 -4 16 -1 16 7 0 8 -6 17 -12 19 -8 3 -5 6 5 6 10 1 15 5
12 11 -4 7 3 7 20 0 15 -6 30 -8 35 -5 15 10 18 -23 5 -61 -9 -27 -20 -40 -35
-42 -13 -2 -20 1 -16 6 4 6 -3 8 -16 4 -20 -5 -20 -6 -2 -12 10 -4 38 -10 62
-14 38 -6 42 -4 42 14 0 11 -7 23 -15 26 -11 5 -12 10 -4 26 9 16 19 19 54 16
24 -1 41 0 38 5 -2 4 1 7 6 7 6 0 11 21 11 49 0 27 3 57 6 65 7 17 15 13 51
-21z m-3840 -6 c10 -7 9 -12 -2 -24 -9 -8 -13 -19 -10 -24 15 -23 -15 -6 -31
19 -15 23 -15 25 -1 13 19 -15 22 -8 7 19 -9 16 -8 19 7 13 10 -3 23 -10 30
-16z m173 7 c0 -2 -7 -4 -15 -4 -8 0 -15 4 -15 10 0 5 7 7 15 4 8 -4 15 -8 15
-10z m-376 -19 c-4 -8 -10 -12 -15 -9 -14 8 -10 24 6 24 9 0 12 -6 9 -15z
m4306 -16 c0 -10 -6 -19 -14 -19 -15 0 -29 27 -21 40 9 15 35 -1 35 -21z
m-3625 -19 c3 -6 -1 -7 -9 -4 -18 7 -21 14 -7 14 6 0 13 -4 16 -10z m3290 -28
c-6 -15 -8 -15 -15 3 -4 12 -3 23 4 27 14 9 20 -7 11 -30z m-277 21 c-10 -2
-28 -2 -40 0 -13 2 -5 4 17 4 22 1 32 -1 23 -4z m-3688 -13 c13 -8 13 -10 -2
-10 -9 0 -20 5 -23 10 -8 13 5 13 25 0z m885 -10 c-21 -24 -31 -25 -38 -6 -4
10 -1 13 7 10 8 -3 17 -1 21 5 3 6 11 11 17 11 6 0 3 -9 -7 -20z m-195 0 c0
-5 -5 -10 -11 -10 -5 0 -7 5 -4 10 3 6 8 10 11 10 2 0 4 -4 4 -10z m2220 -22
c0 -4 -27 -8 -61 -8 -38 0 -58 4 -54 10 8 12 115 11 115 -2z m730 -9 c0 -5 -7
-9 -15 -9 -8 0 -15 7 -15 15 0 9 6 12 15 9 8 -4 15 -10 15 -15z m-1015 1 c-3
-5 -25 -10 -48 -9 -33 0 -38 2 -22 9 28 12 78 12 70 0z m555 4 c-34 -7 -110
-9 -110 -2 0 5 28 7 63 7 34 -1 55 -3 47 -5z m-2667 -55 c-6 -6 -7 3 -4 23 4
28 6 29 9 9 2 -13 0 -27 -5 -32z m1686 46 c-8 -7 -468 -10 -475 -2 -4 4 102 7
236 7 134 0 241 -2 239 -5z m221 -15 c0 -6 -35 -10 -84 -10 -47 0 -88 5 -91
10 -4 6 27 10 84 10 54 0 91 -4 91 -10z m852 -67 c-7 -21 -32 -24 -32 -3 0 10
-8 27 -17 36 -17 17 -17 18 0 11 11 -4 17 -2 17 7 0 8 6 16 13 19 12 4 27 -47
19 -70z m-2595 60 c-4 -3 -1 -13 6 -22 11 -14 10 -14 -5 -2 -16 12 -16 31 -1
31 4 0 3 -3 0 -7z m642 -26 c12 -15 12 -17 -3 -11 -9 3 -16 13 -16 22 0 8 1
13 3 11 1 -2 9 -12 16 -22z m-566 -12 c-23 -31 -33 -31 -33 -2 0 15 3 18 9 9
6 -10 10 -10 21 3 20 24 23 17 3 -10z m2228 15 c15 0 19 -7 19 -36 0 -30 3
-34 14 -25 7 6 20 9 28 6 11 -5 14 1 10 25 l-4 30 53 -1 c30 -1 48 -4 41 -7
-6 -2 -12 -10 -12 -17 0 -8 -12 -15 -27 -17 -14 -2 -29 -10 -31 -18 -4 -11 -2
-13 9 -5 8 6 40 12 72 14 46 2 57 0 57 -13 0 -10 9 -16 23 -17 16 -1 18 -2 5
-6 -20 -5 -21 -10 -18 -65 1 -32 -2 -38 -19 -38 -17 0 -21 6 -21 35 0 22 6 37
17 44 10 5 15 13 11 17 -4 4 -14 2 -22 -5 -10 -8 -15 -9 -18 -1 -2 8 -11 8
-28 1 l-25 -10 28 0 c24 -1 27 -5 27 -35 0 -19 -5 -38 -11 -42 -8 -5 -10 1 -7
20 3 14 1 26 -3 26 -5 0 -9 -9 -9 -19 0 -11 -4 -22 -9 -25 -10 -7 -24 40 -16
54 3 5 1 11 -5 15 -5 3 -10 -2 -11 -12 0 -11 -3 -13 -6 -5 -3 7 0 19 6 26 9
11 7 15 -9 19 -15 4 -20 0 -20 -14 0 -28 -17 -23 -28 9 -9 24 -10 25 -11 5 -1
-27 -21 -31 -21 -5 0 14 -2 15 -9 2 -6 -8 -7 -18 -5 -22 3 -4 1 -8 -5 -8 -5 0
-13 12 -18 27 -8 22 -11 24 -16 10 -3 -9 -2 -17 3 -17 6 0 10 -24 10 -52 -1
-42 -3 -49 -11 -35 -6 10 -7 32 -4 49 l7 31 -51 -5 c-28 -3 -51 -1 -51 3 0 5
19 9 43 10 23 0 36 3 30 6 -18 7 -16 23 3 23 13 0 14 3 5 13 -6 8 -8 17 -4 20
3 4 2 7 -4 7 -6 0 -9 9 -6 21 4 12 11 18 20 15 8 -3 23 -6 34 -6z m2159 -89
c0 -91 -2 -100 -20 -106 -11 -4 -18 -11 -15 -16 4 -5 -6 -9 -22 -10 -15 0 -22
-3 -15 -6 26 -10 10 -23 -28 -23 -22 0 -40 5 -40 10 0 6 11 10 25 10 l25 0 -5
103 c-3 56 -8 110 -11 120 -5 15 2 17 50 17 l56 0 0 -99z m-2680 79 c0 -5 -8
-10 -17 -10 -15 0 -16 2 -3 10 19 12 20 12 20 0z m178 5 c-11 -11 -160 -16
-153 -5 3 5 40 10 82 10 42 0 74 -2 71 -5z m243 -12 c1 -17 2 -17 6 0 8 31 23
18 20 -18 -4 -44 -23 -67 -34 -39 -6 17 -8 17 -13 -6 -9 -37 -42 -33 -47 5 -6
39 23 64 43 37 11 -14 13 -15 14 -1 0 8 -5 20 -12 27 -9 9 -8 12 5 12 9 0 18
-8 18 -17z m1785 -8 c0 -14 -4 -25 -7 -25 -10 0 -20 31 -13 41 10 17 22 9 20
-16z m-3130 5 c-17 -6 -36 -5 -45 0 -11 7 -3 9 29 9 42 -1 43 -1 16 -9z m1162
3 c-10 -2 -26 -2 -35 0 -10 3 -2 5 17 5 19 0 27 -2 18 -5z m2072 -3 c0 -5 -5
-10 -10 -10 -6 0 -21 -12 -34 -26 -19 -23 -26 -25 -42 -16 -17 10 -17 11 -1
12 14 0 16 4 8 19 -6 10 -7 21 -4 25 10 10 83 7 83 -4z m-3816 -9 c3 -5 -1
-11 -9 -15 -15 -6 -29 7 -18 18 9 9 21 8 27 -3z m906 -1 c0 -5 -8 -10 -17 -10
-15 0 -16 2 -3 10 19 12 20 12 20 0z m60 0 c0 -5 -7 -7 -15 -4 -8 4 -15 8 -15
10 0 2 7 4 15 4 8 0 15 -4 15 -10z m137 4 c-3 -3 -12 -4 -19 -1 -8 3 -5 6 6 6
11 1 17 -2 13 -5z m1932 -27 c0 -21 -1 -21 -9 -2 -12 28 -12 37 0 30 6 -3 10
-16 9 -28z m542 16 c1 -10 3 -35 5 -55 3 -34 1 -38 -21 -38 -13 0 -27 -4 -30
-10 -4 -6 6 -8 24 -6 24 3 29 0 28 -15 -1 -16 -10 -19 -49 -19 -42 0 -48 3
-48 21 0 18 -5 21 -29 17 -37 -5 -31 17 7 28 48 13 56 13 72 1 13 -11 13 -10
1 6 -8 9 -11 21 -7 24 4 4 11 1 15 -6 5 -8 11 -9 15 -3 6 11 -21 25 -34 17 -4
-3 -13 2 -20 10 -9 11 -9 17 2 29 19 22 68 21 69 -1z m-3210 0 c0 -5 2 -27 5
-50 4 -31 1 -43 -8 -43 -7 0 1 -11 17 -25 23 -19 27 -27 17 -33 -7 -5 -12 -13
-11 -18 1 -5 -1 -21 -5 -36 -9 -30 -30 -37 -40 -13 -4 10 1 15 14 15 11 0 20
5 20 10 0 6 -7 10 -16 10 -11 0 -8 7 11 24 l26 25 -28 3 c-19 2 -27 8 -24 18
2 8 3 39 3 68 -1 28 3 52 8 52 6 0 10 -3 11 -7z m1084 -3 c4 -6 -21 -10 -68
-10 -40 0 -76 -3 -80 -6 -3 -4 -52 -8 -109 -9 l-103 -3 100 9 c54 5 104 14
109 19 13 13 143 13 151 0z m391 -32 c-3 -31 -48 -78 -74 -78 -11 0 -14 10
-10 44 4 35 2 43 -8 39 -8 -3 -14 -10 -13 -17 3 -24 -1 -37 -11 -31 -6 4 -8
11 -5 16 4 5 2 9 -4 9 -15 0 -26 -23 -13 -28 13 -4 17 -23 5 -21 -22 4 -33 -3
-33 -18 0 -15 -2 -16 -9 -3 -6 8 -8 17 -6 20 2 4 -2 7 -10 7 -8 0 -15 -4 -15
-9 0 -10 -51 -10 -65 0 -5 4 -11 15 -13 25 -3 15 1 17 17 12 12 -3 26 -3 33 2
7 4 16 8 21 9 4 1 10 3 15 4 4 1 18 2 32 2 17 -1 19 1 7 4 -23 7 -12 24 16 25
21 0 21 1 2 10 -20 9 41 5 110 -8 29 -5 29 -4 10 11 -20 15 -20 15 2 9 18 -4
22 -11 19 -35z m-1100 17 c30 -16 25 -19 -13 -9 -13 4 -23 10 -23 15 0 12 3
11 36 -6z m917 -4 c-21 -18 -101 -37 -111 -26 -9 9 1 13 48 20 25 4 49 11 55
16 5 5 14 9 20 9 5 -1 0 -9 -12 -19z m1646 -43 c1 -12 -6 -18 -19 -18 -13 0
-20 7 -20 20 0 11 5 20 10 20 6 0 10 10 11 23 1 21 1 21 9 -3 4 -14 8 -33 9
-42z m511 42 c0 -12 -7 -20 -17 -21 -17 -1 -17 -2 0 -6 19 -5 23 -28 7 -38 -5
-3 -10 -26 -10 -51 0 -25 -4 -43 -9 -39 -5 3 -12 -3 -14 -12 -3 -13 -5 -11 -7
7 -1 14 -3 32 -4 40 -1 8 2 23 7 33 7 15 3 17 -30 16 -38 -1 -38 -1 -8 -9 35
-9 33 -11 -18 -13 -26 -1 -36 2 -32 11 2 6 0 12 -5 12 -6 0 -10 -4 -10 -9 0
-12 -60 -8 -61 4 0 6 15 13 33 16 18 4 25 7 16 8 -15 1 -28 31 -14 31 2 0 11
3 20 6 11 4 16 0 16 -14 0 -14 9 -21 31 -26 46 -9 87 -7 94 4 3 6 -3 10 -14
10 -25 0 -27 17 -4 42 21 24 33 23 33 -2z m-2733 -4 c4 -4 -35 -6 -86 -5 -50
2 -94 5 -96 8 -5 8 174 5 182 -3z m-1402 -7 c11 -17 -1 -21 -15 -4 -8 9 -8 15
-2 15 6 0 14 -5 17 -11z m3530 1 c3 -5 1 -10 -4 -10 -6 0 -11 5 -11 10 0 6 2
10 4 10 3 0 8 -4 11 -10z m-1728 -22 c-3 -8 -6 -5 -6 6 -1 11 2 17 5 13 3 -3
4 -12 1 -19z m53 -23 c0 -25 -5 -45 -11 -45 -6 0 -8 9 -4 20 4 14 2 20 -9 20
-8 0 -18 -4 -21 -10 -3 -5 -12 -10 -18 -10 -7 0 -4 7 6 14 9 7 17 23 17 35 0
14 6 21 20 21 17 0 20 -7 20 -45z m1137 18 c-16 -16 -17 -16 -17 0 0 10 5 15
10 12 6 -3 10 -1 10 6 0 7 3 9 7 5 4 -3 -1 -14 -10 -23z m1033 11 c0 -8 -5
-12 -10 -9 -6 4 -8 11 -5 16 9 14 15 11 15 -7z m-4237 -11 c-7 -2 -19 -2 -25
0 -7 3 -2 5 12 5 14 0 19 -2 13 -5z m602 -3 c3 -5 -1 -10 -9 -10 -9 0 -16 5
-16 10 0 6 4 10 9 10 6 0 13 -4 16 -10z m2902 4 c-3 -3 -12 -4 -19 -1 -8 3 -5
6 6 6 11 1 17 -2 13 -5z m224 -3 c7 11 9 10 9 -3 0 -10 -7 -18 -15 -18 -8 0
-15 8 -14 18 0 12 2 13 6 3 5 -11 7 -11 14 0z m49 -12 c0 -6 -4 -7 -10 -4 -5
3 -10 11 -10 16 0 6 5 7 10 4 6 -3 10 -11 10 -16z m-3565 -9 c10 -11 14 -20 9
-20 -12 1 -44 25 -44 34 0 12 17 6 35 -14z m1779 12 c10 -16 -13 -35 -43 -36
-34 -1 -29 10 9 17 18 3 15 5 -12 6 -23 0 -38 -4 -38 -11 0 -6 -3 -9 -6 -5 -4
3 -4 13 -1 22 7 16 81 22 91 7z m847 -44 c-10 -47 -27 -45 -23 1 3 27 8 38 17
35 8 -3 10 -15 6 -36z m-991 17 c6 -8 10 -20 8 -26 -2 -6 -12 0 -21 15 -18 27
-8 37 13 11z m1928 -76 c2 -48 1 -49 -28 -49 -50 0 -80 20 -80 52 0 15 5 28
10 28 6 0 10 6 10 13 0 8 13 11 43 9 l42 -4 3 -49z m-1428 42 c0 -5 -9 -7 -20
-4 -11 3 -20 7 -20 9 0 2 9 4 20 4 11 0 20 -4 20 -9z m40 -1 c0 -5 -2 -10 -4
-10 -3 0 -8 5 -11 10 -3 6 -1 10 4 10 6 0 11 -4 11 -10z m-2155 -10 c3 -5 2
-10 -4 -10 -5 0 -13 5 -16 10 -3 6 -2 10 4 10 5 0 13 -4 16 -10z m1533 3 c-10
-2 -26 -2 -35 0 -10 3 -2 5 17 5 19 0 27 -2 18 -5z m-1138 -18 c0 -8 -2 -15
-4 -15 -2 0 -6 7 -10 15 -3 8 -1 15 4 15 6 0 10 -7 10 -15z m1840 -1 c0 -2 -7
-4 -15 -4 -8 0 -15 4 -15 10 0 5 7 7 15 4 8 -4 15 -8 15 -10z m-571 -31 c113
-2 238 -7 276 -13 39 -5 160 -12 270 -15 131 -4 202 -9 206 -17 4 -7 56 -13
136 -16 70 -2 133 -8 139 -13 6 -5 62 -7 125 -6 254 6 723 -30 1107 -85 68
-10 82 -15 82 -30 0 -16 -11 -18 -105 -18 -63 0 -105 -4 -105 -10 0 -12 -37
-13 -106 -3 -35 4 -43 8 -29 13 11 4 30 3 43 -1 13 -5 31 -9 40 -9 15 0 15 2
2 11 -12 8 -10 9 8 4 12 -4 22 -2 22 4 0 6 39 11 98 13 l97 3 -95 10 c-64 7
-97 7 -102 0 -5 -6 -8 -5 -8 3 0 18 -57 15 -64 -4 -4 -11 -16 -15 -39 -13 -18
2 -37 1 -42 -2 -6 -3 -127 -2 -270 1 -143 4 -263 6 -266 4 -3 -2 -109 -6 -235
-9 -126 -3 -256 -7 -289 -9 l-60 -4 50 12 49 12 -134 13 c-74 7 -274 14 -444
16 -169 2 -311 6 -314 9 -3 4 83 6 190 6 171 0 197 2 202 16 4 11 10 13 19 6
6 -5 57 -12 112 -15 55 -4 169 -11 253 -18 144 -10 154 -10 174 7 11 11 22 18
24 17 11 -8 64 -2 60 6 -4 5 0 12 6 14 7 3 3 6 -9 6 -12 1 -24 -3 -27 -8 -5
-7 -67 -8 -86 -1 -3 1 -9 3 -15 4 -5 0 -20 7 -33 14 -13 7 -51 16 -85 19 -34
2 -68 9 -74 15 -8 6 -49 8 -105 4 -130 -8 -197 -7 -241 5 -21 6 -48 9 -60 8
-12 -2 -32 1 -45 5 -37 12 -120 17 -561 29 -67 2 -82 24 -19 29 24 2 49 -1 57
-7 7 -5 106 -11 220 -12z m-1339 -14 c0 -5 -4 -9 -10 -9 -5 0 -10 7 -10 16 0
8 5 12 10 9 6 -3 10 -10 10 -16z m2456 -18 c-21 -23 -76 -45 -76 -30 0 5 6 9
14 9 8 0 28 11 43 24 32 28 45 26 19 -3z m151 -6 c-28 -25 -54 -34 -42 -15 3
6 12 10 20 10 7 0 15 7 19 15 3 8 11 15 18 15 7 0 0 -12 -15 -25z m-2919 -5
c7 -11 9 -20 6 -20 -3 0 -17 9 -31 20 -22 17 -23 20 -7 20 11 0 25 -9 32 -20z
m886 -22 c3 -23 2 -38 -4 -38 -6 0 -10 19 -10 42 0 49 6 47 14 -4z m3176 27
c0 -8 -2 -15 -4 -15 -2 0 -6 7 -10 15 -3 8 -1 15 4 15 6 0 10 -7 10 -15z
m-2252 -5 c6 0 12 -5 12 -10 0 -12 -50 -2 -65 13 -7 6 -2 8 15 3 14 -3 31 -6
38 -6z m-1148 -29 c0 -10 3 -33 6 -50 6 -28 4 -31 -20 -31 -19 0 -26 5 -26 20
0 11 6 20 13 20 8 0 14 7 14 15 0 8 -6 15 -14 15 -7 0 -13 7 -13 15 0 8 9 15
20 15 13 0 20 -7 20 -19z m-320 -11 c13 -8 13 -10 -2 -10 -9 0 -20 5 -23 10
-8 13 5 13 25 0z m627 -12 c-3 -8 -6 -5 -6 6 -1 11 2 17 5 13 3 -3 4 -12 1
-19z m648 12 c18 -5 -25 -8 -113 -9 -93 -1 -141 2 -137 9 7 12 205 12 250 0z
m690 0 c-74 -14 -165 -20 -165 -10 0 8 40 13 155 17 l50 1 -40 -8z m1922 -32
c-3 -7 -5 -2 -5 12 0 14 2 19 5 13 2 -7 2 -19 0 -25z m53 9 c0 -16 -6 -23 -21
-24 -21 -2 -21 -1 -3 12 18 13 18 14 2 15 -25 0 -23 20 2 20 14 0 20 -7 20
-23z m-3347 -24 c-3 -18 -9 -30 -14 -28 -4 3 -3 19 3 36 13 37 17 34 11 -8z
m-923 17 c12 -8 12 -10 -5 -10 -11 0 -27 5 -35 10 -12 8 -12 10 5 10 11 0 27
-5 35 -10z m1637 -6 c2 -7 -6 -10 -22 -7 -14 3 -25 10 -25 15 0 13 43 6 47 -8z
m-743 -42 l21 -24 -25 4 c-20 2 -25 9 -27 38 -1 19 1 28 4 20 3 -8 15 -26 27
-38z m1619 31 c-23 -2 -64 -2 -90 0 -26 2 -7 3 42 3 50 0 71 -1 48 -3z m-1515
-44 c-3 -8 -7 -3 -11 10 -4 17 -3 21 5 13 5 -5 8 -16 6 -23z m52 12 c0 -6 -4
-13 -10 -16 -5 -3 -10 1 -10 9 0 9 5 16 10 16 6 0 10 -4 10 -9z m-400 -100 c0
-89 -2 -99 -17 -97 -15 2 -18 16 -21 91 -3 85 3 104 31 105 4 0 7 -45 7 -99z
m3080 79 c0 -13 -11 -13 -30 0 -12 8 -11 10 8 10 12 0 22 -4 22 -10z m-1480
-10 c0 -5 -9 -10 -19 -10 -11 0 -23 5 -26 10 -4 6 5 10 19 10 14 0 26 -4 26
-10z m-1267 -41 c32 -22 57 -44 57 -49 0 -5 13 -16 29 -24 16 -9 32 -27 35
-41 4 -14 18 -31 33 -38 26 -12 26 -12 -18 -23 -24 -6 -79 -12 -121 -13 l-78
-2 0 30 c0 41 -9 61 -29 62 -9 0 -11 3 -4 5 13 6 6 34 -7 34 -5 0 -16 -7 -25
-16 -23 -23 -27 -14 -19 44 5 37 12 53 28 60 37 19 62 13 119 -29z m-818 21
c3 -6 -1 -7 -9 -4 -18 7 -21 14 -7 14 6 0 13 -4 16 -10z m1848 3 c-40 -2 -107
-2 -150 0 -43 1 -10 3 72 3 83 0 118 -2 78 -3z m-1713 -23 c12 -8 11 -10 -7
-10 -13 0 -23 5 -23 10 0 13 11 13 30 0z m900 6 c0 -3 -4 -8 -10 -11 -5 -3
-10 -1 -10 4 0 6 5 11 10 11 6 0 10 -2 10 -4z m2020 -16 c-8 -5 -40 -9 -70 -9
-46 1 -50 3 -25 9 46 12 113 12 95 0z m-2744 -21 c19 -22 19 -22 -3 -10 -13 6
-23 16 -23 21 0 15 5 12 26 -11z m1620 11 c8 0 14 -4 14 -10 0 -5 -25 -10 -55
-10 -30 0 -55 4 -55 9 0 10 47 20 68 14 8 -1 20 -3 28 -3z m1993 -21 c21 -20
85 -26 96 -9 8 13 75 13 75 1 0 -9 -125 -28 -145 -22 -5 2 -20 4 -32 5 -13 0
-23 7 -23 14 0 6 -7 12 -15 12 -8 0 -15 6 -15 14 0 18 32 10 59 -15z m-2839
-16 c0 -32 -5 -28 -14 10 -4 19 -3 26 4 22 5 -3 10 -18 10 -32z m550 11 c0 -2
-18 -4 -41 -4 -22 0 -38 4 -35 8 5 8 76 4 76 -4z m728 9 c-21 -2 -57 -2 -80 0
-24 2 -7 4 37 4 44 0 63 -2 43 -4z m-661 -9 c-3 -3 -12 -4 -19 -1 -8 3 -5 6 6
6 11 1 17 -2 13 -5z m878 -4 c4 -6 -28 -10 -90 -10 -62 0 -94 4 -90 10 3 6 44
10 90 10 46 0 87 -4 90 -10z m-2585 -10 c13 -8 13 -10 -2 -10 -9 0 -20 5 -23
10 -8 13 5 13 25 0z m1325 0 c3 -5 1 -10 -4 -10 -6 0 -11 5 -11 10 0 6 2 10 4
10 3 0 8 -4 11 -10z m2530 0 c-3 -5 -10 -10 -16 -10 -5 0 -9 5 -9 10 0 6 7 10
16 10 8 0 12 -4 9 -10z m-2645 -25 c0 -14 -2 -25 -4 -25 -2 0 -6 11 -8 25 -3
14 -1 25 3 25 5 0 9 -11 9 -25z m2970 15 c0 -5 -21 -10 -46 -10 -27 0 -43 4
-39 10 3 6 24 10 46 10 21 0 39 -4 39 -10z m-2930 -9 c0 -6 -4 -13 -10 -16 -5
-3 -10 1 -10 9 0 9 5 16 10 16 6 0 10 -4 10 -9z m2550 -11 c11 -7 4 -9 -24 -5
-21 2 -41 7 -44 10 -10 9 53 5 68 -5z m146 -3 c4 -4 -23 -7 -59 -7 -37 0 -67
4 -67 9 0 11 115 9 126 -2z m-1756 -7 c0 -5 -7 -10 -15 -10 -8 0 -15 5 -15 10
0 6 7 10 15 10 8 0 15 -4 15 -10z m405 0 c4 -6 -13 -10 -44 -10 -27 0 -53 5
-56 10 -4 6 13 10 44 10 27 0 53 -4 56 -10z m-228 -31 c-24 -14 -257 -24 -257
-11 0 10 91 21 188 21 38 0 52 3 47 11 -5 9 -1 9 15 0 20 -11 21 -14 7 -21z
m-637 -9 c0 -13 -11 -13 -30 0 -12 8 -11 10 8 10 12 0 22 -4 22 -10z m-1235
-62 c3 -35 5 -110 3 -168 l-3 -105 -29 -3 -29 -4 6 134 c4 73 7 150 7 171 0
30 4 37 19 37 16 0 20 -10 26 -62z m524 -24 c6 -14 9 -30 6 -35 -4 -5 10 -9
30 -9 31 0 71 -14 85 -31 3 -3 18 -9 34 -13 15 -4 27 -9 24 -11 -7 -7 -329
-108 -332 -104 -2 2 -6 18 -9 35 -6 29 -4 32 41 47 41 15 18 15 -29 1 -12 -3
-19 3 -23 21 -6 23 -11 25 -59 26 -47 1 -49 2 -22 10 17 5 37 8 45 6 11 -3 17
4 18 21 3 32 12 43 12 14 0 -16 6 -22 23 -22 31 0 44 11 50 40 4 25 4 25 6 -2
1 -23 5 -27 24 -24 12 3 30 5 40 5 20 1 24 37 5 44 -9 4 -7 6 3 6 9 1 21 -11
28 -25z m631 16 c0 -6 -11 -8 -27 -4 -40 10 -41 14 -5 14 18 0 32 -5 32 -10z
m328 -5 c3 -3 -64 -4 -149 -3 l-154 2 125 6 c129 6 169 5 178 -5z m-1923 -5
c3 -5 2 -10 -4 -10 -5 0 -13 5 -16 10 -3 6 -2 10 4 10 5 0 13 -4 16 -10z m895
-5 c0 -8 -2 -15 -4 -15 -2 0 -6 7 -10 15 -3 8 -1 15 4 15 6 0 10 -7 10 -15z
m17 -7 c-3 -8 -6 -5 -6 6 -1 11 2 17 5 13 3 -3 4 -12 1 -19z m-100 -20 c-3 -7
-5 -2 -5 12 0 14 2 19 5 13 2 -7 2 -19 0 -25z m621 7 c-3 -3 -9 2 -12 12 -6
14 -5 15 5 6 7 -7 10 -15 7 -18z m592 15 c0 -12 -47 -12 -75 0 -15 6 -8 9 28
9 26 1 47 -3 47 -9z m-473 -42 c-3 -7 -5 -2 -5 12 0 14 2 19 5 13 2 -7 2 -19
0 -25z m423 3 c0 -9 -270 -5 -279 5 -2 2 59 4 137 4 80 0 142 -4 142 -9z
m-378 -47 c-6 -35 -12 -29 -12 14 0 23 3 32 9 24 4 -7 6 -24 3 -38z m548 36
c0 -6 -33 -9 -82 -8 l-83 2 80 6 c44 3 81 7 83 8 1 1 2 -2 2 -8z m117 4 c-3
-3 -12 -4 -19 -1 -8 3 -5 6 6 6 11 1 17 -2 13 -5z m56 -1 c-7 -2 -19 -2 -25 0
-7 3 -2 5 12 5 14 0 19 -2 13 -5z m126 -27 c-7 -6 -119 -56 -127 -56 -4 0 -38
-16 -75 -35 -38 -19 -77 -35 -88 -35 -11 0 -17 -4 -14 -10 3 -5 0 -10 -9 -10
-8 0 -23 -3 -33 -7 -16 -6 -17 -5 -2 9 16 17 289 143 324 150 20 4 32 1 24 -6z
m-806 -66 c3 -11 2 -22 -3 -25 -4 -3 -10 8 -12 25 -5 32 6 32 15 0z m177 -44
c0 -7 -61 -13 -65 -6 -2 3 12 7 31 8 19 2 34 1 34 -2z m-483 -46 c10 -11 30
-20 45 -20 26 0 28 -3 28 -40 0 -29 4 -40 15 -40 10 0 15 -10 15 -30 0 -28
-11 -36 -42 -31 -5 0 -8 -3 -8 -8 0 -13 -62 -33 -71 -24 -5 5 -9 37 -11 73
l-3 65 -50 6 -50 6 55 1 c65 2 57 19 -13 25 -60 5 -68 13 -26 26 57 16 98 13
116 -9z m-888 -41 c-11 -7 -9 -9 6 -10 18 -1 18 -2 1 -6 -16 -4 -18 -13 -14
-63 4 -50 2 -59 -14 -63 -20 -6 -25 9 -5 16 8 4 7 6 -3 6 -12 1 -15 10 -12 39
3 20 10 40 16 44 8 5 7 8 -2 8 -7 0 -10 5 -7 10 3 6 0 10 -7 10 -7 1 -2 7 12
14 26 15 52 10 29 -5z m728 -15 c-3 -3 -12 -4 -19 -1 -8 3 -5 6 6 6 11 1 17
-2 13 -5z m52 -30 c-7 -9 -10 -34 -7 -64 3 -28 1 -50 -3 -50 -5 0 -9 31 -9 70
0 58 2 68 15 64 12 -5 13 -9 4 -20z m-752 -72 c-2 -58 -4 -62 -31 -72 -40 -14
-51 -13 -37 3 6 8 8 17 4 20 -3 4 2 10 12 13 10 4 21 1 26 -7 6 -9 9 9 8 51
-2 82 0 89 11 69 5 -8 8 -43 7 -77z m1453 78 c0 -5 -4 -10 -10 -10 -5 0 -10 5
-10 10 0 6 5 10 10 10 6 0 10 -4 10 -10z m120 -24 c0 -3 -4 -8 -10 -11 -5 -3
-10 -1 -10 4 0 6 5 11 10 11 6 0 10 -2 10 -4z m-205 -16 c-3 -5 -18 -10 -33
-9 -24 0 -25 1 -7 9 28 12 47 12 40 0z m-580 -81 c-25 -7 -32 15 -11 37 9 8
17 23 17 32 1 9 5 -1 8 -23 5 -34 3 -41 -14 -46z m-1308 -21 c-3 -7 -5 -2 -5
12 0 14 2 19 5 13 2 -7 2 -19 0 -25z m531 -50 c3 -21 -3 -28 -29 -37 -48 -16
-59 -14 -59 14 0 19 8 29 33 39 41 18 51 15 55 -16z m932 -22 c0 -3 -4 -8 -10
-11 -5 -3 -10 -1 -10 4 0 6 5 11 10 11 6 0 10 -2 10 -4z m-910 -26 c0 -11 -29
-24 -77 -36 -39 -10 -24 17 18 32 43 16 59 17 59 4z m330 -120 c0 -5 -4 -10
-10 -10 -5 0 -10 5 -10 10 0 6 5 10 10 10 6 0 10 -4 10 -10z m-95 -70 c3 -5 1
-10 -4 -10 -6 0 -11 5 -11 10 0 6 2 10 4 10 3 0 8 -4 11 -10z m-299 -31 c6 -5
14 -6 17 -2 9 8 37 -17 37 -33 0 -19 -49 -18 -56 1 -4 8 -12 15 -20 15 -8 0
-14 4 -14 8 0 5 -12 13 -27 19 -26 10 -25 10 12 5 22 -2 45 -9 51 -13z m1074
-38 c0 -5 -7 -12 -16 -15 -15 -6 -169 -101 -246 -151 -30 -20 -38 -22 -48 -10
-8 10 -6 18 11 34 13 12 29 21 37 21 8 0 27 11 44 25 16 14 36 25 43 25 7 0
15 3 17 8 4 9 129 71 146 72 6 0 12 -4 12 -9z m-954 -52 c8 -6 14 -23 14 -37
0 -20 -3 -23 -12 -14 -7 7 -25 12 -40 12 -21 0 -28 5 -28 19 0 11 -3 26 -6 35
-5 13 -1 14 26 6 18 -5 38 -14 46 -21z m354 27 c0 -2 -15 -9 -32 -15 -30 -10
-31 -9 -14 4 18 14 46 20 46 11z m-15 -120 c8 -7 11 -16 8 -19 -5 -6 -33 17
-33 27 0 10 11 7 25 -8z m219 -8 c-3 -4 -16 -8 -30 -8 -13 0 -24 4 -24 8 0 5
13 9 30 9 16 0 27 -4 24 -9z m89 -43 c39 -27 48 -45 22 -45 -8 0 -15 7 -15 15
0 8 -8 15 -18 15 -19 0 -42 18 -42 32 0 14 14 9 53 -17z m-579 -11 c3 -8 2
-12 -4 -9 -6 3 -10 10 -10 16 0 14 7 11 14 -7z m448 -9 c-2 -5 -9 -9 -15 -7
-6 2 -24 4 -39 4 -15 1 -28 5 -28 10 0 5 19 8 43 6 23 -2 40 -7 39 -13z m-168
-27 c-8 -13 -20 -9 -45 11 l-24 19 37 -11 c20 -6 34 -15 32 -19z m46 -8 c0 -5
-2 -10 -4 -10 -3 0 -8 5 -11 10 -3 6 -1 10 4 10 6 0 11 -4 11 -10z m300 -49
c0 -6 -4 -13 -10 -16 -5 -3 -10 1 -10 9 0 9 5 16 10 16 6 0 10 -4 10 -9z
m-490 -71 c6 -11 8 -20 6 -20 -3 0 -10 9 -16 20 -6 11 -8 20 -6 20 3 0 10 -9
16 -20z m381 3 c36 -22 45 -44 23 -60 -30 -22 -51 -15 -73 23 -32 54 -8 71 50
37z m153 -30 c30 -32 20 -52 -23 -45 -38 5 -52 39 -25 59 23 17 19 18 48 -14z
m-239 -23 c11 -13 14 -20 6 -20 -21 0 -52 21 -46 31 9 14 20 11 40 -11z m189
-29 c7 -11 -52 -26 -62 -16 -8 8 18 25 40 25 9 0 19 -4 22 -9z m-219 -41 c10
-11 15 -23 11 -27 -9 -9 -58 18 -64 35 -6 20 33 14 53 -8z m161 -11 c10 -17
-11 -31 -50 -35 -32 -2 -35 0 -26 16 15 29 62 40 76 19z m104 -29 c0 -5 -5
-10 -11 -10 -5 0 -7 5 -4 10 3 6 8 10 11 10 2 0 4 -4 4 -10z"/>
<path d="M4327 2431 c-2 -10 -1 -24 3 -31 5 -7 9 0 12 19 5 34 -7 43 -15 12z"/>
<path d="M4766 2442 c-3 -6 -1 -14 5 -17 14 -9 20 -2 10 14 -6 8 -11 9 -15 3z"/>
<path d="M4523 2423 c4 -3 1 -13 -6 -22 -11 -14 -10 -14 6 -2 20 15 22 31 5
31 -6 0 -8 -3 -5 -7z"/>
<path d="M4430 2400 c-10 -6 -6 -9 16 -8 42 1 57 -10 51 -38 -4 -21 -1 -24 27
-24 22 0 27 3 17 9 -7 5 -10 14 -7 20 4 6 1 11 -6 11 -8 0 -21 9 -31 20 -18
21 -43 25 -67 10z"/>
<path d="M4720 2390 c-18 -12 -2 -12 25 0 13 6 15 9 5 9 -8 0 -22 -4 -30 -9z"/>
<path d="M4260 2370 c-8 -5 -12 -12 -9 -15 4 -3 12 1 19 10 14 17 11 19 -10 5z"/>
<path d="M4300 2370 c0 -5 9 -9 20 -7 31 5 36 17 7 17 -15 0 -27 -4 -27 -10z"/>
<path d="M4621 2361 c-6 -10 -7 -21 -4 -25 12 -12 18 -6 19 19 2 30 -2 31 -15
6z"/>
<path d="M4505 2300 c-3 -5 1 -10 9 -10 8 0 18 5 21 10 3 6 -1 10 -9 10 -8 0
-18 -4 -21 -10z"/>
<path d="M4446 2225 c-4 -11 1 -15 17 -14 12 0 16 3 9 6 -6 2 -10 9 -6 14 3 5
1 9 -4 9 -6 0 -12 -7 -16 -15z"/>
<path d="M4227 2223 c-10 -10 -8 -33 2 -33 6 0 9 9 8 20 -1 23 -1 22 -10 13z"/>
<path d="M688 2553 c7 -3 16 -2 19 1 4 3 -2 6 -13 5 -11 0 -14 -3 -6 -6z"/>
<path d="M3570 2276 c0 -7 -10 -21 -22 -30 l-23 -17 25 6 c23 6 23 5 8 -8 -10
-8 -18 -20 -18 -28 1 -10 4 -9 11 3 5 9 15 15 22 12 9 -3 12 7 9 36 -4 38 -12
56 -12 26z"/>
<path d="M3956 2276 c3 -9 2 -22 -3 -29 -15 -18 -23 -57 -12 -57 5 0 9 9 9 20
0 11 4 20 9 20 16 0 19 39 5 51 -12 10 -13 9 -8 -5z"/>
<path d="M3886 2195 c-3 -9 -6 -22 -5 -28 0 -7 5 -1 10 12 5 13 8 26 5 28 -2
2 -6 -3 -10 -12z"/>
<path d="M3328 2243 c6 -2 18 -2 25 0 6 3 1 5 -13 5 -14 0 -19 -2 -12 -5z"/>
<path d="M2700 2190 c0 -5 7 -7 15 -4 8 4 15 8 15 10 0 2 -7 4 -15 4 -8 0 -15
-4 -15 -10z"/>
<path d="M4286 2142 c-2 -4 0 -14 6 -22 8 -12 9 -12 5 2 -3 9 -1 19 6 22 9 3
9 5 0 5 -6 1 -14 -3 -17 -7z"/>
<path d="M4261 2104 c0 -11 3 -14 6 -6 3 7 2 16 -1 19 -3 4 -6 -2 -5 -13z"/>
<path d="M3693 1987 c-29 -5 -53 -13 -53 -16 0 -8 357 -7 365 1 9 9 -41 16
-137 21 -43 2 -78 0 -78 -5 0 -4 -7 -8 -15 -8 -8 0 -15 5 -15 10 0 6 -3 9 -7
9 -5 -1 -32 -6 -60 -12z"/>
<path d="M4075 1967 c12 -8 39 -13 65 -11 25 1 63 2 84 3 70 2 32 11 -70 17
-87 5 -97 4 -79 -9z"/>
<path d="M4279 1951 c11 -7 11 -10 0 -15 -8 -3 -2 -4 13 -2 15 1 25 0 23 -4
-3 -4 37 -8 87 -9 50 -1 96 -5 101 -8 5 -3 8 0 5 8 -3 9 -34 18 -89 26 -105
14 -159 16 -140 4z"/>
<path d="M3658 1943 c6 -2 18 -2 25 0 6 3 1 5 -13 5 -14 0 -19 -2 -12 -5z"/>
<path d="M3755 1935 c-28 -13 -24 -13 55 -13 l85 0 -45 14 c-53 16 -56 16 -95
-1z"/>
<path d="M3953 1933 c9 -2 23 -2 30 0 6 3 -1 5 -18 5 -16 0 -22 -2 -12 -5z"/>
<path d="M4193 1933 c15 -2 37 -2 50 0 12 2 0 4 -28 4 -27 0 -38 -2 -22 -4z"/>
<path d="M1780 1745 c-17 -20 -8 -50 15 -50 13 0 20 7 20 20 0 11 7 20 15 20
8 0 14 -8 14 -17 -1 -10 4 -18 12 -18 18 0 17 20 0 43 -16 21 -59 22 -76 2z"/>
<path d="M1916 1737 c3 -10 9 -15 12 -12 3 3 0 11 -7 18 -10 9 -11 8 -5 -6z"/>
<path d="M1888 1573 c7 -3 16 -2 19 1 4 3 -2 6 -13 5 -11 0 -14 -3 -6 -6z"/>
<path d="M2050 1530 c-18 -12 -2 -12 25 0 13 6 15 9 5 9 -8 0 -22 -4 -30 -9z"/>
<path d="M1980 1510 c-9 -6 -10 -10 -3 -10 6 0 15 5 18 10 8 12 4 12 -15 0z"/>
<path d="M2386 1341 c-3 -5 1 -11 9 -14 9 -4 12 -1 8 9 -6 16 -10 17 -17 5z"/>
<path d="M2420 1292 c0 -26 4 -39 14 -39 9 0 13 13 13 39 0 25 -4 38 -13 38
-10 0 -14 -13 -14 -38z"/>
<path d="M2386 1294 c-9 -24 -7 -46 3 -39 5 3 12 -3 14 -12 4 -14 5 -13 6 5 0
12 -3 22 -8 22 -5 0 -7 9 -4 20 6 24 -2 27 -11 4z"/>
<path d="M830 3835 c-7 -9 -11 -17 -9 -20 3 -2 10 5 17 15 14 24 10 26 -8 5z"/>
<path d="M2576 3835 c-4 -11 -14 -35 -22 -52 -8 -20 -10 -33 -3 -33 13 0 41
67 36 88 -3 14 -5 14 -11 -3z"/>
<path d="M937 3793 c-36 -58 -41 -71 -18 -43 24 28 54 80 46 80 -2 0 -15 -17
-28 -37z"/>
<path d="M1080 3780 c5 -18 7 -37 4 -41 -3 -5 0 -9 7 -9 13 0 5 58 -11 74 -6
6 -6 -2 0 -24z"/>
<path d="M2600 3768 c-12 -22 -12 -22 6 -6 10 10 15 20 12 24 -4 3 -12 -5 -18
-18z"/>
<path d="M2997 3724 c-26 -19 -47 -36 -47 -39 0 -3 19 9 42 25 23 17 48 28 55
26 7 -3 13 -1 13 4 0 21 -18 16 -63 -16z"/>
<path d="M857 3723 c-4 -3 -7 -11 -7 -17 0 -6 5 -5 12 2 6 6 9 14 7 17 -3 3
-9 2 -12 -2z"/>
<path d="M1119 3677 c18 -27 35 -46 38 -44 7 8 -13 40 -43 67 -26 24 -26 23 5
-23z"/>
<path d="M3067 3699 c4 -13 8 -18 11 -10 2 7 -1 18 -6 23 -8 8 -9 4 -5 -13z"/>
<path d="M2444 3677 c-25 -26 -48 -67 -41 -73 2 -3 12 7 21 21 9 14 23 36 32
50 20 31 16 32 -12 2z"/>
<path d="M766 3648 c-20 -23 -33 -44 -30 -47 6 -6 46 39 65 72 16 29 2 19 -35
-25z"/>
<path d="M2970 3666 c0 -2 7 -9 15 -16 13 -11 14 -10 9 4 -5 14 -24 23 -24 12z"/>
<path d="M3101 3644 c13 -17 26 -30 28 -27 3 2 -8 16 -24 31 l-28 27 24 -31z"/>
<path d="M931 3614 c-30 -46 -34 -79 -5 -40 14 20 14 20 15 0 0 -10 7 3 14 31
8 27 12 51 10 53 -2 3 -18 -17 -34 -44z"/>
<path d="M1213 3626 c-31 -35 -47 -64 -21 -38 23 23 41 14 35 -18 -4 -17 -2
-30 3 -30 17 0 10 -24 -16 -55 -19 -21 -24 -24 -20 -10 4 11 -15 -5 -42 -35
-28 -30 -49 -56 -47 -58 7 -8 33 13 53 44 13 20 26 33 29 30 3 -3 0 -12 -7
-21 -7 -8 -14 -25 -15 -38 -2 -12 -7 -31 -11 -42 -6 -16 -3 -15 13 5 12 14 17
27 12 30 -9 6 53 105 69 112 5 1 6 39 3 82 l-6 80 -32 -38z"/>
<path d="M2357 3640 c-9 -11 -12 -22 -7 -25 5 -3 14 4 20 16 15 28 8 33 -13 9z"/>
<path d="M2472 3633 c-26 -23 -57 -73 -45 -73 5 0 24 20 42 45 34 48 35 56 3
28z"/>
<path d="M2250 3591 c0 -7 -6 -11 -12 -8 -14 4 -37 -21 -38 -41 0 -7 14 1 32
17 18 17 29 33 25 37 -4 4 -7 2 -7 -5z"/>
<path d="M1373 3557 c12 -13 24 -22 26 -20 6 4 -30 43 -40 43 -5 0 2 -10 14
-23z"/>
<path d="M3155 3550 c9 -16 18 -30 21 -30 2 0 -2 14 -11 30 -9 17 -18 30 -21
30 -2 0 2 -13 11 -30z"/>
<path d="M3890 3565 c-11 -13 -10 -14 4 -9 9 3 16 10 16 15 0 13 -6 11 -20 -6z"/>
<path d="M2970 3553 c1 -10 8 -29 16 -43 10 -16 13 -18 8 -5 -4 11 -6 28 -6
37 0 10 -3 20 -9 23 -5 4 -9 -2 -9 -12z"/>
<path d="M1156 3503 c-21 -24 -37 -45 -34 -48 2 -2 21 16 42 41 49 58 43 64
-8 7z"/>
<path d="M3815 3503 c-27 -25 -36 -37 -20 -25 28 19 84 73 74 72 -2 -1 -26
-22 -54 -47z"/>
<path d="M2160 3520 c-6 -12 -9 -24 -7 -27 3 -2 11 5 17 17 6 12 9 24 7 27 -3
2 -11 -5 -17 -17z"/>
<path d="M2211 3495 c-13 -20 -21 -38 -18 -41 3 -3 11 5 18 18 6 12 16 26 22
29 5 4 8 12 6 18 -2 6 -15 -5 -28 -24z"/>
<path d="M2271 3517 c-11 -14 -6 -27 10 -27 5 0 5 7 2 17 -5 12 -3 14 7 8 9
-5 11 -4 6 3 -9 15 -11 15 -25 -1z"/>
<path d="M1901 3497 c-28 -17 -38 -19 -63 -9 -25 9 -34 7 -64 -13 -19 -13 -40
-26 -47 -28 -9 -3 -8 -8 3 -18 8 -8 12 -10 8 -5 -4 5 11 22 33 38 38 28 42 28
65 13 22 -14 26 -14 64 10 22 14 40 27 40 30 0 7 0 7 -39 -18z"/>
<path d="M2488 3475 c-8 -19 -12 -35 -8 -35 9 0 35 59 28 65 -2 2 -11 -11 -20
-30z"/>
<path d="M2543 3480 c-34 -42 -27 -61 7 -20 17 19 30 38 30 42 0 15 -15 7 -37
-22z"/>
<path d="M1970 3490 c-8 -5 -12 -12 -9 -15 4 -3 12 1 19 10 14 17 11 19 -10 5z"/>
<path d="M3190 3480 c6 -11 13 -20 16 -20 2 0 0 9 -6 20 -6 11 -13 20 -16 20
-2 0 0 -9 6 -20z"/>
<path d="M3140 3486 c0 -2 8 -10 18 -17 15 -13 16 -12 3 4 -13 16 -21 21 -21
13z"/>
<path d="M184 3418 c-45 -43 -64 -69 -64 -86 l0 -25 23 25 c12 14 32 38 45 54
20 26 21 26 11 4 -17 -37 4 -12 35 43 15 26 24 47 21 47 -4 0 -36 -28 -71 -62z"/>
<path d="M2589 3463 c-13 -16 -12 -17 4 -4 9 7 17 15 17 17 0 8 -8 3 -21 -13z"/>
<path d="M3430 3435 c13 -14 26 -25 28 -25 3 0 -5 11 -18 25 -13 14 -26 25
-28 25 -3 0 5 -11 18 -25z"/>
<path d="M3180 3441 c0 -6 4 -13 10 -16 6 -3 7 1 4 9 -7 18 -14 21 -14 7z"/>
<path d="M141 3424 c0 -11 3 -14 6 -6 3 7 2 16 -1 19 -3 4 -6 -2 -5 -13z"/>
<path d="M1899 3404 l-34 -36 31 15 c28 14 51 44 41 53 -2 2 -19 -13 -38 -32z"/>
<path d="M3684 3414 c-18 -14 -18 -15 4 -4 12 6 22 13 22 15 0 8 -5 6 -26 -11z"/>
<path d="M1956 3392 l-19 -27 24 22 c12 12 21 24 18 27 -2 2 -13 -8 -23 -22z"/>
<path d="M1999 3383 l-24 -28 28 24 c25 23 32 31 24 31 -2 0 -14 -12 -28 -27z"/>
<path d="M3566 3395 c-11 -8 -15 -15 -9 -15 6 0 16 7 23 15 16 19 11 19 -14 0z"/>
<path d="M3622 3395 c15 -16 20 -17 30 -6 11 11 10 13 0 7 -7 -4 -21 -2 -30 5
-15 12 -15 11 0 -6z"/>
<path d="M3240 3393 c0 -6 8 -17 18 -24 16 -13 16 -13 2 6 -8 11 -16 22 -17
24 -2 2 -3 0 -3 -6z"/>
<path d="M2700 3388 c0 -3 7 -19 15 -35 17 -34 39 -142 31 -150 -3 -3 -10 6
-16 21 -5 15 -26 48 -46 74 -21 26 -33 38 -29 27 4 -11 10 -33 13 -50 3 -20
31 -57 86 -115 46 -47 97 -111 115 -142 29 -52 93 -118 114 -118 4 0 3 9 -3
20 -6 11 -15 18 -19 16 -9 -6 -36 103 -27 111 3 3 13 0 23 -8 10 -8 6 0 -7 18
-14 17 -29 31 -35 29 -5 -2 -17 7 -25 19 -72 107 -94 145 -102 173 -5 19 -12
31 -15 28 -10 -9 -43 25 -43 44 0 10 -7 23 -15 30 -8 7 -15 10 -15 8z m217
-350 c-3 -8 -6 -5 -6 6 -1 11 2 17 5 13 3 -3 4 -12 1 -19z"/>
<path d="M2105 3370 c-3 -5 -2 -10 4 -10 5 0 13 5 16 10 3 6 2 10 -4 10 -5 0
-13 -4 -16 -10z"/>
<path d="M3025 3356 c10 -14 19 -26 22 -26 7 0 -17 39 -28 46 -6 3 -3 -5 6
-20z"/>
<path d="M3520 3376 c0 -2 7 -7 16 -10 8 -3 12 -2 9 4 -6 10 -25 14 -25 6z"/>
<path d="M2091 3297 l-25 -32 30 25 c16 14 33 28 39 32 5 5 3 8 -5 7 -8 0 -26
-14 -39 -32z"/>
<path d="M2061 3297 c-13 -21 -12 -21 5 -5 10 10 16 20 13 22 -3 3 -11 -5 -18
-17z"/>
<path d="M3070 3295 c13 -14 26 -25 28 -25 3 0 -5 11 -18 25 -13 14 -26 25
-28 25 -3 0 5 -11 18 -25z"/>
<path d="M3640 3311 c0 -5 7 -15 17 -22 15 -13 15 -12 4 9 -12 23 -21 28 -21
13z"/>
<path d="M3500 3306 c0 -2 8 -10 18 -17 15 -13 16 -12 3 4 -13 16 -21 21 -21
13z"/>
<path d="M3604 3288 l-19 -23 23 19 c21 18 27 26 19 26 -2 0 -12 -10 -23 -22z"/>
<path d="M3200 3296 c0 -2 8 -10 18 -17 15 -13 16 -12 3 4 -13 16 -21 21 -21
13z"/>
<path d="M2810 3271 c0 -5 17 -30 38 -54 20 -25 62 -79 92 -120 35 -48 64 -78
80 -82 14 -4 39 -17 55 -29 40 -30 99 -61 90 -46 -4 6 -17 15 -30 20 -14 5
-26 20 -30 39 -3 17 -10 30 -13 29 -25 -4 -69 27 -84 61 -35 75 -22 79 45 13
44 -44 70 -62 88 -62 15 0 39 -10 55 -22 16 -12 -5 14 -46 59 -41 44 -90 101
-109 126 -36 50 -63 66 -34 20 10 -16 22 -31 28 -35 6 -5 4 -8 -5 -8 -8 0 7
-21 35 -50 27 -27 46 -52 43 -55 -3 -3 -39 30 -80 72 -41 43 -82 85 -93 93
-17 14 -18 13 -13 -7 8 -31 -8 -29 -28 3 -11 15 -20 21 -24 14 -4 -7 -16 -3
-33 10 -15 12 -27 17 -27 11z"/>
<path d="M3385 3260 c-3 -6 -14 -10 -25 -10 -16 0 -30 -18 -30 -39 0 -5 16
-29 35 -55 39 -50 39 -51 2 -37 -20 8 -27 6 -31 -6 -5 -13 -9 -14 -19 -4 -9 9
-9 13 0 19 10 6 9 14 -2 36 -18 35 -19 39 -2 30 8 -5 8 -2 -2 9 -15 18 -26 23
-16 7 3 -5 1 -10 -5 -10 -6 0 -8 -4 -5 -10 3 -5 1 -10 -5 -10 -12 0 -33 48
-26 59 3 4 -4 7 -14 8 -17 2 -19 -4 -16 -50 3 -35 9 -55 21 -62 10 -5 48 -30
87 -54 38 -24 72 -41 75 -37 4 3 1 6 -5 6 -7 0 -12 9 -12 21 0 11 4 18 9 15 5
-3 11 1 15 9 3 8 13 15 23 15 15 0 16 2 3 10 -13 9 -13 11 0 19 12 8 12 13 -4
30 -10 11 -22 18 -26 16 -4 -3 -11 3 -15 12 -3 10 -2 19 4 21 5 2 7 10 4 18
-11 29 21 12 70 -36 28 -28 51 -49 53 -47 2 1 -6 17 -18 35 -22 36 -113 88
-123 72z"/>
<path d="M3050 3228 c13 -18 48 -55 77 -82 30 -26 52 -51 49 -54 -3 -3 -14 1
-23 9 -10 8 14 -19 52 -59 39 -39 71 -72 73 -72 2 0 -6 14 -18 30 -12 17 -25
30 -30 30 -4 0 -6 8 -3 19 8 30 -24 81 -48 78 -19 -2 -21 4 -23 46 0 26 1 47
3 47 3 0 13 -8 23 -17 30 -27 43 -1 13 27 -22 20 -28 22 -51 11 -19 -8 -30 -9
-39 -1 -11 9 -15 5 -18 -17 -4 -25 -5 -26 -11 -8 -4 12 -17 27 -28 34 -20 12
-19 11 2 -21z"/>
<path d="M3558 3253 c7 -3 16 -2 19 1 4 3 -2 6 -13 5 -11 0 -14 -3 -6 -6z"/>
<path d="M3680 3253 c0 -5 12 -20 28 -34 l27 -24 -25 30 c-14 17 -26 32 -27
34 -2 2 -3 0 -3 -6z"/>
<path d="M2978 3224 c6 -11 19 -27 28 -35 16 -13 16 -12 6 7 -6 11 -19 27 -28
35 -16 13 -16 12 -6 -7z"/>
<path d="M3510 3218 c0 -19 29 -52 53 -61 14 -5 16 -3 8 11 -5 9 -21 28 -35
41 -19 18 -26 21 -26 9z"/>
<path d="M3901 3216 c2 -2 15 -9 29 -15 24 -11 24 -11 6 3 -16 13 -49 24 -35
12z"/>
<path d="M3820 3143 c13 -18 25 -33 27 -33 8 0 -17 38 -33 51 -11 9 -9 2 6
-18z"/>
<path d="M3784 3140 c0 -13 4 -16 10 -10 7 7 7 13 0 20 -6 6 -10 3 -10 -10z"/>
<path d="M3420 3036 c0 -3 13 -12 29 -21 16 -8 35 -20 43 -27 7 -7 22 -20 33
-28 17 -12 16 -10 -3 11 -21 25 -102 76 -102 65z"/>
<path d="M3270 3023 c0 -6 8 -17 18 -24 16 -13 16 -13 2 6 -8 11 -16 22 -17
24 -2 2 -3 0 -3 -6z"/>
<path d="M2738 2823 c46 -2 118 -2 160 0 42 1 5 3 -83 3 -88 0 -123 -2 -77 -3z"/>
<path d="M3023 2823 c9 -2 25 -2 35 0 9 3 1 5 -18 5 -19 0 -27 -2 -17 -5z"/>
<path d="M3103 2823 c15 -2 37 -2 50 0 12 2 0 4 -28 4 -27 0 -38 -2 -22 -4z"/>
<path d="M3268 2823 c6 -2 18 -2 25 0 6 3 1 5 -13 5 -14 0 -19 -2 -12 -5z"/>
<path d="M3518 2783 c7 -3 16 -2 19 1 4 3 -2 6 -13 5 -11 0 -14 -3 -6 -6z"/>
<path d="M5502 2627 c-6 -6 -12 -28 -14 -47 -2 -28 -7 -34 -23 -32 -19 2 -19
2 -2 -8 29 -19 42 -6 42 41 0 41 2 44 30 50 29 6 29 7 4 8 -15 0 -31 -5 -37
-12z"/>
<path d="M1888 2613 c6 -2 18 -2 25 0 6 3 1 5 -13 5 -14 0 -19 -2 -12 -5z"/>
<path d="M2066 2571 c-3 -4 27 -8 67 -9 50 0 65 2 47 8 -34 11 -108 12 -114 1z"/>
<path d="M2215 2570 c-3 -5 1 -10 10 -10 9 0 13 5 10 10 -3 6 -8 10 -10 10 -2
0 -7 -4 -10 -10z"/>
<path d="M2430 2570 c0 -5 5 -10 10 -10 6 0 10 5 10 10 0 6 -4 10 -10 10 -5 0
-10 -4 -10 -10z"/>
<path d="M5352 2560 c2 -16 10 -25 23 -27 16 -1 16 -1 2 3 -9 3 -15 9 -13 13
3 4 0 13 -5 21 -8 12 -9 9 -7 -10z"/>
<path d="M2283 2563 c9 -2 23 -2 30 0 6 3 -1 5 -18 5 -16 0 -22 -2 -12 -5z"/>
<path d="M3945 2528 c-127 -13 -130 -27 -5 -27 71 1 107 5 116 14 14 13 8 26
-10 24 -6 -1 -51 -6 -101 -11z"/>
<path d="M2110 2520 c-11 -7 -6 -10 20 -10 26 0 31 3 20 10 -8 5 -17 10 -20
10 -3 0 -12 -5 -20 -10z"/>
<path d="M2328 2523 c6 -2 18 -2 25 0 6 3 1 5 -13 5 -14 0 -19 -2 -12 -5z"/>
<path d="M5099 2523 c-1 -5 -2 -29 -3 -55 -2 -51 10 -64 20 -23 5 22 12 25 53
26 44 1 45 1 13 9 -18 4 -42 17 -53 29 -21 22 -28 26 -30 14z"/>
<path d="M5245 2521 c-3 -5 -1 -12 5 -16 5 -3 10 1 10 9 0 18 -6 21 -15 7z"/>
<path d="M5305 2500 c-18 -19 -17 -20 1 -20 13 0 20 7 21 20 1 11 0 20 -1 20
-2 0 -11 -9 -21 -20z"/>
<path d="M5410 2510 c0 -5 4 -10 9 -10 6 0 13 5 16 10 3 6 -1 10 -9 10 -9 0
-16 -4 -16 -10z"/>
<path d="M5455 2511 c-9 -16 9 -20 23 -5 10 12 10 14 -2 14 -8 0 -17 -4 -21
-9z"/>
<path d="M3475 2500 c-55 -4 -103 -6 -106 -4 -4 2 -20 -3 -35 -12 -27 -14 -19
-15 106 -8 119 6 173 10 190 13 12 3 -26 21 -40 19 -8 0 -60 -4 -115 -8z"/>
<path d="M5490 2440 c0 -59 0 -60 28 -59 26 0 26 1 4 9 -18 8 -22 15 -18 37 2
16 5 34 5 41 1 6 10 12 22 12 11 0 17 5 14 10 -3 6 -17 10 -31 10 -23 0 -24
-3 -24 -60z"/>
<path d="M5236 2436 c7 -17 54 -23 54 -6 0 5 -7 7 -15 4 -8 -4 -22 -1 -30 6
-13 11 -14 10 -9 -4z"/>
<path d="M5130 2419 c0 -5 5 -7 10 -4 6 3 10 8 10 11 0 2 -4 4 -10 4 -5 0 -10
-5 -10 -11z"/>
<path d="M5445 2400 c-3 -5 1 -10 10 -10 9 0 13 5 10 10 -3 6 -8 10 -10 10 -2
0 -7 -4 -10 -10z"/>
<path d="M5070 2370 c0 -5 7 -10 16 -10 8 0 12 5 9 10 -3 6 -10 10 -16 10 -5
0 -9 -4 -9 -10z"/>
<path d="M5495 2351 c-3 -5 -1 -12 5 -16 5 -3 10 -2 10 4 0 5 8 12 18 14 13 4
12 5 -5 6 -12 0 -24 -3 -28 -8z"/>
<path d="M5071 2198 c-1 -16 4 -28 9 -28 12 0 12 8 0 35 -8 18 -9 17 -9 -7z"/>
<path d="M4970 2169 c0 -5 6 -9 14 -9 8 0 17 -6 19 -12 4 -8 6 -7 6 3 1 9 -8
19 -19 22 -11 3 -20 1 -20 -4z"/>
<path d="M5002 2105 c0 -16 2 -22 5 -12 2 9 2 23 0 30 -3 6 -5 -1 -5 -18z"/>
<path d="M4136 1811 c-3 -4 -35 -17 -71 -27 -35 -10 -67 -24 -70 -32 -3 -9 0
-10 13 -3 9 5 44 19 77 30 57 20 92 41 68 41 -7 0 -14 -4 -17 -9z"/>
<path d="M4185 1810 c-3 -5 -1 -10 4 -10 6 0 11 5 11 10 0 6 -2 10 -4 10 -3 0
-8 -4 -11 -10z"/>
<path d="M4218 1790 c-30 -4 -36 -8 -28 -20 5 -8 10 -10 10 -4 0 7 26 12 67
13 37 1 71 5 75 9 9 9 -67 10 -124 2z"/>
<path d="M4400 1789 c19 -4 51 -4 70 0 28 6 22 8 -35 8 -57 0 -63 -1 -35 -8z"/>
<path d="M4629 1766 c-2 -2 -79 -6 -171 -7 -149 -3 -168 -5 -168 -20 0 -27
-24 -41 -51 -30 -13 5 -18 10 -11 10 7 1 11 5 7 11 -3 5 -12 7 -20 3 -9 -3
-15 1 -15 8 0 11 -3 11 -10 -1 -15 -23 -12 -33 8 -25 14 5 15 4 5 -6 -18 -18
-16 -49 2 -49 18 0 19 11 3 29 -11 11 -7 13 24 8 25 -4 40 -1 48 9 10 11 17
11 33 2 23 -12 288 -18 347 -7 20 4 -22 7 -95 8 -158 3 -140 19 24 22 109 2
118 4 103 24 -7 10 -55 19 -63 11z"/>
<path d="M4116 1725 c-19 -29 -22 -79 -3 -73 19 7 38 51 25 59 -6 4 -8 14 -5
23 9 23 2 20 -17 -9z"/>
<path d="M3918 1722 c-22 -4 -18 7 -26 -83 -7 -74 -7 -76 15 -73 13 1 26 -3
30 -8 4 -7 -1 -9 -13 -7 -11 3 -29 -5 -43 -18 -13 -13 -19 -23 -13 -23 6 0 14
5 17 11 4 6 13 8 21 5 8 -3 14 -1 14 4 0 6 7 10 15 10 13 0 15 14 12 90 -1 49
-5 91 -7 93 -3 2 -13 2 -22 -1z"/>
<path d="M3996 1625 l1 -105 -56 -15 c-31 -9 -78 -22 -106 -29 -27 -8 -66 -17
-85 -21 -55 -11 -376 -119 -473 -159 -48 -20 -92 -34 -96 -31 -5 3 -7 -3 -4
-14 6 -24 -29 -48 -139 -96 -63 -27 -85 -41 -81 -51 3 -8 8 -14 12 -12 133 64
207 107 220 130 11 18 32 33 66 44 27 9 77 28 110 44 81 37 309 111 478 155
197 51 379 115 385 134 2 6 13 11 25 11 20 1 21 1 4 11 -15 9 -23 6 -42 -11
-21 -20 -156 -79 -182 -80 -8 0 -13 12 -13 29 0 25 5 31 38 41 52 17 59 27 18
26 -19 -1 -32 -4 -29 -8 2 -5 -1 -8 -6 -8 -14 0 -14 11 -1 44 5 14 6 26 2 26
-5 0 -13 -17 -19 -37 -10 -37 -10 -37 -12 25 0 34 -4 62 -8 62 -5 0 -8 -47 -7
-105z"/>
<path d="M4030 1710 c-6 -11 -8 -20 -6 -20 3 0 10 9 16 20 6 11 8 20 6 20 -3
0 -10 -9 -16 -20z"/>
<path d="M5038 1703 c17 -2 47 -2 65 0 17 2 3 4 -33 4 -36 0 -50 -2 -32 -4z"/>
<path d="M4773 1683 c9 -2 23 -2 30 0 6 3 -1 5 -18 5 -16 0 -22 -2 -12 -5z"/>
<path d="M5225 1680 c-3 -5 -23 -10 -43 -10 -27 0 -33 -3 -25 -11 15 -15 143
-25 143 -11 0 6 3 17 6 26 5 13 -2 16 -34 16 -23 0 -44 -4 -47 -10z"/>
<path d="M3710 1670 c0 -5 -8 -10 -17 -10 -10 -1 -29 -7 -43 -16 l-25 -15 25
7 c14 3 40 12 58 20 29 12 46 4 22 -11 -5 -3 -10 -35 -10 -69 l0 -63 62 3 c71
4 85 11 40 20 -36 7 -42 18 -38 73 2 23 -1 41 -5 41 -5 0 -10 -26 -11 -57 -1
-44 -2 -48 -5 -18 -7 86 -13 105 -33 105 -11 0 -20 -4 -20 -10z"/>
<path d="M3811 1616 c0 -39 3 -66 7 -60 5 5 6 36 2 69 l-7 60 -2 -69z"/>
<path d="M4661 1670 c9 -5 28 -6 45 0 27 8 26 8 -16 9 -32 0 -40 -2 -29 -9z"/>
<path d="M5023 1613 c9 -2 25 -2 35 0 9 3 1 5 -18 5 -19 0 -27 -2 -17 -5z"/>
<path d="M5200 1610 c36 -4 69 -3 75 2 5 4 -25 7 -65 6 l-75 -1 65 -7z"/>
<path d="M3650 1547 c0 -43 4 -66 10 -62 13 8 13 95 0 115 -7 10 -10 -5 -10
-53z"/>
<path d="M3851 1596 c-12 -14 -5 -46 10 -46 5 0 9 14 9 30 0 34 -3 36 -19 16z"/>
<path d="M3696 1584 c-10 -25 -7 -84 4 -84 6 0 10 23 10 50 0 52 -4 61 -14 34z"/>
<path d="M4640 1563 c0 -24 -4 -43 -9 -43 -5 0 -7 9 -4 20 3 12 0 20 -7 20 -8
0 -11 -11 -8 -30 4 -28 2 -30 -36 -38 -35 -6 -42 -12 -46 -37 -4 -20 -8 -26
-13 -17 -9 14 -87 17 -87 3 0 -6 -8 -10 -17 -11 -52 -2 -119 -13 -127 -21 -5
-5 20 -8 58 -7 45 1 71 -3 76 -12 5 -9 22 -10 61 -4 30 4 60 7 68 5 7 -1 10 2
7 8 -4 6 9 13 31 17 21 4 51 13 67 21 18 9 32 11 38 5 6 -6 -2 -12 -22 -16
-19 -3 -29 -10 -24 -17 4 -7 25 -9 63 -4 31 5 69 7 84 6 16 -1 26 3 23 8 -4 5
-2 12 4 16 27 17 6 26 -54 23 -60 -3 -63 -2 -54 15 7 14 5 22 -9 32 -10 7 -21
11 -25 9 -5 -3 -8 2 -8 10 0 9 -6 16 -12 16 -10 0 -10 2 -1 8 8 5 8 13 -2 32
-14 24 -14 24 -15 -17z m58 -75 c-7 -22 -71 -49 -102 -43 -16 3 -32 8 -35 11
-10 10 24 24 59 24 19 0 42 5 50 10 21 13 32 12 28 -2z"/>
<path d="M4340 1570 c-19 -11 -31 -19 -27 -20 11 0 67 29 67 35 0 7 -1 7 -40
-15z"/>
<path d="M4690 1570 c8 -5 34 -10 58 -10 24 0 41 -4 38 -9 -6 -9 53 -35 61
-27 2 2 -2 10 -10 17 -11 12 -3 14 57 16 47 2 73 -1 78 -10 5 -8 11 -8 16 -2
11 15 92 17 110 3 13 -11 14 -11 7 2 -7 12 -6 13 6 4 8 -6 25 -14 39 -17 14
-3 35 -8 47 -10 17 -4 28 2 43 24 l21 29 -293 0 c-193 0 -288 -4 -278 -10z"/>
<path d="M3620 1535 c0 -8 5 -15 10 -15 6 0 10 7 10 15 0 8 -4 15 -10 15 -5 0
-10 -7 -10 -15z"/>
<path d="M4247 1535 c-21 -7 -42 -17 -45 -21 -4 -4 2 -4 13 0 11 5 35 12 53
18 17 5 32 11 32 13 0 7 -12 5 -53 -10z"/>
<path d="M4464 1527 c1 -22 2 -22 33 -8 42 19 42 31 -1 31 -29 0 -34 -3 -32
-23z"/>
<path d="M3595 1520 c-3 -5 -1 -10 4 -10 6 0 11 5 11 10 0 6 -2 10 -4 10 -3 0
-8 -4 -11 -10z"/>
<path d="M5042 1517 c-5 -7 -12 -28 -15 -47 -3 -19 -11 -48 -18 -65 -7 -16
-11 -34 -10 -39 2 -11 -19 -36 -32 -36 -6 0 -7 3 -4 7 4 3 2 12 -4 20 -6 7 -9
23 -6 35 5 21 5 21 -7 6 -7 -10 -19 -18 -27 -18 -12 0 -12 -2 0 -9 12 -8 12
-16 1 -55 -16 -58 -25 -64 -39 -26 -6 20 -7 30 0 30 6 0 7 5 4 10 -3 6 3 10
15 10 12 0 19 4 16 9 -3 5 -15 7 -26 4 -16 -4 -20 2 -26 46 -4 28 -10 54 -14
56 -4 3 -15 -25 -24 -62 -13 -49 -14 -68 -5 -73 8 -6 8 -9 0 -14 -19 -12 -30
3 -37 49 -3 25 -10 45 -14 45 -4 0 -12 -28 -18 -62 -5 -35 -16 -76 -23 -93 -7
-16 -13 -35 -14 -41 -1 -20 -27 -63 -41 -68 -14 -5 -50 61 -39 72 2 3 7 -3 11
-12 7 -18 24 -22 24 -6 0 6 11 22 25 35 31 28 24 34 -32 31 -41 -2 -42 -1 -48
35 l-6 37 -62 -5 c-34 -3 -63 -7 -65 -8 -10 -9 15 -35 33 -35 13 0 27 -4 30
-10 4 -6 -10 -10 -34 -10 -38 0 -41 2 -41 28 0 15 -3 37 -6 50 -5 18 -9 20
-20 11 -10 -8 -14 -8 -14 -1 0 6 -7 9 -15 6 -22 -9 -18 -22 8 -28 12 -2 6 -4
-14 -2 -22 1 -35 -2 -33 -9 3 -6 -15 -11 -43 -13 -26 -1 -51 -8 -55 -15 -5 -8
-8 -7 -8 6 0 13 8 17 32 17 53 0 27 7 -47 13 -38 3 -61 3 -50 0 61 -16 26 -23
-115 -23 -94 0 -150 -4 -145 -9 6 -5 24 -11 40 -13 17 -2 -11 -6 -62 -9 -50
-2 -89 -1 -87 3 7 11 -81 21 -115 13 -56 -12 -34 -26 29 -19 33 4 60 4 60 1 0
-7 -65 -26 -106 -30 -16 -2 -56 -13 -89 -25 -33 -11 -69 -23 -80 -25 -14 -3
-11 -5 10 -7 17 -1 39 -5 50 -10 15 -6 6 -9 -35 -11 -30 -1 -59 -3 -65 -4 -5
-2 -37 -3 -70 -4 -33 -1 -55 -5 -48 -9 7 -4 113 -7 237 -7 124 0 226 -3 226
-7 0 -17 -64 -21 -249 -15 -116 3 -204 2 -216 -4 -14 -6 4 -8 54 -4 41 3 72 3
69 -1 -3 -3 -46 -9 -95 -13 l-88 -8 115 -2 c200 -4 169 -20 -40 -20 -130 -1
-190 -5 -180 -11 8 -5 73 -10 144 -10 71 0 127 -2 125 -4 -3 -3 -73 -7 -158
-10 -84 -2 -155 -7 -158 -9 -11 -11 143 -18 170 -8 16 6 43 10 60 10 24 -1 26
-3 10 -6 -13 -2 -23 -10 -23 -17 0 -9 -31 -13 -117 -14 -123 -2 -153 -7 -153
-24 0 -7 20 -8 61 -4 79 9 415 -4 397 -15 -7 -5 -79 -9 -160 -9 -87 0 -149 -4
-153 -10 -5 -9 33 -14 82 -13 7 1 10 -3 7 -8 -8 -14 -102 -11 -107 4 -3 9 -8
9 -22 -3 -13 -11 -41 -14 -109 -13 -50 1 -107 -1 -126 -5 -35 -6 -34 -6 15
-12 28 -3 56 -1 63 4 8 5 12 4 12 -4 0 -9 26 -10 108 -6 l107 6 -60 -15 c-33
-7 -81 -14 -107 -14 -25 -1 -48 -6 -50 -12 -2 -6 -17 -9 -33 -7 l-30 4 25 11
c39 18 -109 17 -151 -1 -32 -14 -31 -14 34 -9 48 4 67 2 67 -6 0 -7 -3 -10 -8
-7 -13 8 -125 -19 -130 -32 -2 -7 2 -10 10 -7 7 3 33 1 58 -4 l45 -9 -42 -1
c-23 -1 -45 -6 -49 -12 -5 -9 20 -9 97 -3 120 10 290 7 303 -6 5 -5 -45 -9
-115 -9 -156 -1 -414 -16 -429 -26 -26 -16 17 -23 172 -30 87 -4 158 -11 158
-15 0 -3 -86 -4 -191 -2 -108 3 -194 1 -199 -4 -6 -6 12 -9 45 -7 78 3 68 -13
-12 -20 -37 -4 -71 -12 -77 -18 -8 -8 -6 -10 9 -6 29 8 123 12 130 5 7 -6 -67
-16 -174 -23 -89 -6 -106 -15 -30 -16 42 -1 48 -3 29 -9 -22 -7 -21 -8 13 -9
25 -1 36 -5 31 -12 -4 -7 -24 -9 -50 -6 -24 2 -41 1 -38 -4 3 -5 -2 -9 -10 -9
-22 0 -28 -17 -14 -41 12 -20 19 -21 143 -18 174 4 410 0 403 -7 -3 -3 -121
-5 -262 -5 -166 0 -255 -3 -251 -9 3 -6 24 -10 46 -10 21 0 39 -4 39 -10 0 -5
-14 -10 -32 -10 l-32 0 34 -25 c19 -14 41 -25 49 -25 11 0 10 -4 -5 -13 -58
-33 -84 -52 -84 -63 0 -6 -9 -19 -20 -29 -29 -26 -25 -33 23 -38 32 -3 27 -4
-22 -5 -35 -1 -62 -5 -58 -8 21 -21 598 -26 707 -6 36 7 81 14 100 17 19 3 58
11 85 17 l50 12 -40 7 c-39 6 -39 6 13 8 30 0 51 -3 48 -8 -4 -5 7 -6 26 -1
18 5 58 14 88 20 59 13 288 88 305 100 6 3 33 15 60 25 63 23 304 144 370 186
292 187 571 435 743 662 l73 95 -32 82 c-32 83 -33 103 -6 75 21 -20 120 -21
136 -1 10 12 5 16 -33 21 -24 4 -51 5 -58 3 -7 -3 -25 -1 -40 3 -17 5 -30 3
-36 -4z m-227 -247 c3 -5 1 -10 -4 -10 -6 0 -11 5 -11 10 0 6 2 10 4 10 3 0 8
-4 11 -10z m-522 -26 c-3 -9 -1 -19 6 -23 7 -5 9 -19 5 -40 -9 -43 -15 -33
-21 35 -3 38 -2 54 6 50 5 -4 7 -14 4 -22z m127 16 c0 -5 -5 -10 -10 -10 -12
0 -13 -2 -35 -82 -15 -54 -30 -75 -33 -45 0 6 -5 29 -10 50 -9 35 -9 37 14 37
16 0 28 9 39 30 15 29 35 40 35 20z m-405 -9 c-10 -9 -261 -23 -252 -15 7 8
127 21 197 23 37 0 60 -3 55 -8z m128 2 c-7 -2 -21 -2 -30 0 -10 3 -4 5 12 5
17 0 24 -2 18 -5z m327 -40 c-1 -28 -3 -34 -10 -22 -8 14 -3 59 6 59 2 0 4
-17 4 -37z m30 17 c0 -11 5 -20 11 -20 5 0 8 4 4 9 -3 6 6 6 24 1 20 -6 32 -5
35 3 3 7 3 -4 0 -23 -4 -19 -10 -43 -16 -52 -10 -20 -27 -24 -29 -8 -1 6 -3
15 -4 20 -1 6 -3 17 -4 25 0 8 -8 15 -16 15 -8 0 -15 4 -15 9 0 5 -3 16 -6 25
-3 9 -1 16 5 16 6 0 11 -9 11 -20z m140 0 c0 -5 -2 -10 -4 -10 -3 0 -8 5 -11
10 -3 6 -1 10 4 10 6 0 11 -4 11 -10z m-425 -70 c19 -7 19 -7 0 -19 -18 -11
-18 -12 -1 -7 16 5 17 2 11 -21 -9 -40 -25 -53 -25 -22 0 14 -3 29 -7 33 -4 3
-8 14 -9 24 -1 9 -5 33 -8 52 l-6 35 13 -34 c7 -19 22 -37 32 -41z m218 36
c-1 -14 2 -26 8 -26 12 0 12 -27 -1 -35 -6 -4 -10 -3 -9 2 1 4 -3 21 -9 36
-16 37 -15 60 1 54 6 -2 11 -16 10 -31z m-289 -40 c-7 -29 -34 -36 -34 -8 0
14 2 15 9 3 8 -12 11 -9 17 12 3 16 8 26 11 24 2 -3 1 -16 -3 -31z m-391 7
c-7 -2 -19 -2 -25 0 -7 3 -2 5 12 5 14 0 19 -2 13 -5z m247 -23 c0 -6 -27 -10
-60 -10 -46 0 -61 -4 -69 -17 -9 -16 -10 -16 -11 4 0 17 7 23 33 26 65 8 107
7 107 -3z m127 -52 c-3 -7 -5 -2 -5 12 0 14 2 19 5 13 2 -7 2 -19 0 -25z
m-294 -33 c-3 -9 -8 -14 -10 -11 -3 3 -2 9 2 15 9 16 15 13 8 -4z m217 -62 c0
-22 -16 -22 -17 0 -1 12 -4 33 -7 47 -5 22 -3 21 9 -5 8 -16 14 -35 15 -42z
m-126 10 c-6 -36 -23 -68 -25 -47 0 5 -2 25 -4 44 -2 19 -1 29 2 23 7 -18 23
-16 23 2 0 8 2 15 5 15 3 0 3 -17 -1 -37z m886 23 c-9 -9 -23 -12 -78 -15 -7
-1 -10 -5 -7 -11 7 -11 -2 -13 -56 -12 -23 1 -44 -6 -57 -18 -22 -21 -62 -27
-62 -10 0 6 9 10 20 10 11 0 20 6 20 13 0 17 62 39 92 32 13 -3 34 0 48 7 30
16 95 19 80 4z m-830 -41 c0 -8 -4 -15 -10 -15 -5 0 -10 7 -10 15 0 8 5 15 10
15 6 0 10 -7 10 -15z m550 -35 c0 -5 -12 -10 -27 -10 -22 0 -25 2 -13 10 20
13 40 13 40 0z m170 -10 c0 -4 -13 -7 -30 -8 -30 -1 -41 13 -17 21 16 5 47 -3
47 -13z m-291 -69 c10 -7 0 -11 -35 -16 -27 -4 -58 -13 -69 -20 -24 -14 -45
-9 -45 11 0 8 10 14 23 15 31 1 81 9 86 15 7 7 25 4 40 -5z m-625 -26 c-4 -8
-11 -12 -16 -9 -6 4 -5 10 3 15 19 12 19 11 13 -6z m-517 -21 c-3 -3 -12 -4
-19 -1 -8 3 -5 6 6 6 11 1 17 -2 13 -5z m-213 -29 c3 -9 0 -15 -9 -15 -8 0
-15 7 -15 15 0 8 4 15 9 15 5 0 11 -7 15 -15z m-81 -2 c-7 -2 -21 -2 -30 0
-10 3 -4 5 12 5 17 0 24 -2 18 -5z m1084 -38 c2 -7 -22 -11 -67 -10 -71 0 -93
10 -42 18 45 7 105 3 109 -8z m-1077 -55 c0 -5 -21 -9 -47 -8 l-48 1 45 7 c25
4 46 8 48 8 1 1 2 -2 2 -8z m-143 -6 c-3 -3 -12 -4 -19 -1 -8 3 -5 6 6 6 11 1
17 -2 13 -5z m-89 -121 c-10 -3 -18 -9 -18 -14 0 -14 -27 -11 -33 5 -4 11 4
14 31 13 20 0 29 -2 20 -4z m87 -43 c12 -5 -12 -6 -60 -3 -44 3 -82 7 -84 9
-9 8 125 2 144 -6z m541 -33 c-9 -12 -23 -32 -32 -44 -27 -37 -11 -69 55 -111
32 -20 67 -43 77 -50 18 -13 18 -13 0 -7 -11 3 -23 0 -28 -7 -6 -10 -10 -7
-14 9 -5 19 -8 20 -20 8 -11 -10 -21 -12 -39 -5 -14 5 -32 7 -40 4 -8 -4 -15
-1 -15 5 0 6 14 11 31 11 31 0 38 24 8 26 -48 3 -97 34 -54 34 8 0 15 5 15 10
0 6 -29 10 -67 10 l-68 1 40 19 c22 11 30 18 17 16 -12 -2 -20 0 -17 5 11 16
75 41 92 35 16 -5 16 -5 -1 8 -19 16 -14 36 10 36 8 0 14 4 14 9 0 12 44 19
48 8 2 -4 -3 -18 -12 -30z m-236 23 c0 -5 -12 -10 -27 -9 -25 0 -26 1 -8 9 27
12 35 12 35 0z m140 0 c-8 -5 -28 -9 -45 -9 -29 1 -29 1 -5 8 14 4 34 8 45 9
16 1 17 -1 5 -8z m-502 -10 c44 0 72 -4 72 -11 0 -7 -26 -9 -77 -5 -43 3 -93
5 -110 6 -18 0 -33 5 -33 11 0 8 13 10 38 5 20 -3 70 -6 110 -6z m-221 -36
c-3 -3 -12 -4 -19 -1 -8 3 -5 6 6 6 11 1 17 -2 13 -5z m246 -71 c-29 -2 -78
-2 -110 0 -32 2 -8 3 52 3 61 0 87 -1 58 -3z m255 -64 c-12 -7 -24 -7 -35 0
-15 9 -12 10 17 10 29 0 32 -1 18 -10z m-408 -89 c-20 -13 -103 -13 -95 0 3 6
30 10 58 10 37 0 48 -3 37 -10z"/>
<path d="M3270 430 c0 -5 5 -10 11 -10 5 0 7 5 4 10 -3 6 -8 10 -11 10 -2 0
-4 -4 -4 -10z"/>
<path d="M3620 1490 c0 -19 3 -21 12 -12 9 9 9 15 0 24 -9 9 -12 7 -12 -12z"/>
<path d="M4125 1490 c-13 -5 -14 -9 -5 -9 8 0 24 4 35 9 13 5 14 9 5 9 -8 0
-24 -4 -35 -9z"/>
<path d="M4770 1490 c0 -5 18 -10 39 -10 22 0 48 -3 58 -7 17 -6 17 -6 1 10
-18 18 -98 24 -98 7z"/>
<path d="M3637 1458 c-69 -37 -69 -49 0 -17 26 12 62 28 78 35 29 13 29 13 5
12 -14 0 -51 -14 -83 -30z"/>
<path d="M4958 1483 c7 -3 16 -2 19 1 4 3 -2 6 -13 5 -11 0 -14 -3 -6 -6z"/>
<path d="M3590 1460 c-9 -6 -10 -10 -3 -10 6 0 15 5 18 10 8 12 4 12 -15 0z"/>
<path d="M4168 1463 c6 -2 18 -2 25 0 6 3 1 5 -13 5 -14 0 -19 -2 -12 -5z"/>
<path d="M4904 1445 c11 -8 23 -21 28 -27 5 -8 7 -2 6 15 -2 22 -7 27 -28 27
-24 -1 -24 -1 -6 -15z"/>
<path d="M5115 1449 c-4 -5 0 -9 7 -9 10 0 10 -2 -1 -9 -16 -10 -6 -31 14 -31
14 0 41 38 32 46 -10 10 -47 12 -52 3z"/>
<path d="M3928 1423 c7 -3 16 -2 19 1 4 3 -2 6 -13 5 -11 0 -14 -3 -6 -6z"/>
<path d="M4178 1403 c12 -2 30 -2 40 0 9 3 -1 5 -23 4 -22 0 -30 -2 -17 -4z"/>
<path d="M2036 1378 c-12 -17 -16 -48 -16 -118 l0 -96 35 4 35 4 0 88 c0 126
-19 168 -54 118z"/>
<path d="M3820 1390 c-13 -8 -13 -10 2 -10 9 0 20 5 23 10 8 13 -5 13 -25 0z"/>
<path d="M4797 1393 c-4 -3 -7 -13 -7 -22 1 -13 3 -13 11 2 11 19 8 33 -4 20z"/>
<path d="M3758 1373 c7 -3 16 -2 19 1 4 3 -2 6 -13 5 -11 0 -14 -3 -6 -6z"/>
<path d="M4710 1376 c0 -2 9 -6 20 -9 11 -3 20 -1 20 4 0 5 -9 9 -20 9 -11 0
-20 -2 -20 -4z"/>
<path d="M1923 1362 c-22 -14 -33 -63 -33 -153 l0 -90 38 6 c35 6 36 6 17 -10
-11 -9 -30 -14 -42 -12 -14 3 -23 -1 -23 -9 0 -21 15 -25 36 -9 10 8 27 15 37
15 15 0 17 12 17 100 0 65 -5 113 -14 135 -16 38 -16 38 -33 27z"/>
<path d="M3630 1340 c-8 -5 -10 -10 -5 -10 6 0 17 5 25 10 8 5 11 10 5 10 -5
0 -17 -5 -25 -10z"/>
<path d="M4540 1340 c-12 -8 -11 -10 8 -10 12 0 22 5 22 10 0 13 -11 13 -30 0z"/>
<path d="M3905 1331 c11 -5 45 -8 75 -8 l55 -1 -45 8 c-25 5 -58 9 -75 9 -25
0 -27 -2 -10 -8z"/>
<path d="M4085 1330 c3 -5 10 -10 16 -10 5 0 9 5 9 10 0 6 -7 10 -16 10 -8 0
-12 -4 -9 -10z"/>
<path d="M4665 1310 l-50 -7 58 -1 c37 -1 56 2 52 8 -3 6 -7 9 -8 8 -1 0 -24
-4 -52 -8z"/>
<path d="M3485 1295 c-16 -8 -23 -14 -15 -14 8 0 26 6 40 14 32 18 15 18 -25
0z"/>
<path d="M3430 1270 c-9 -6 -10 -10 -3 -10 6 0 15 5 18 10 8 12 4 12 -15 0z"/>
<path d="M3643 1263 c9 -2 23 -2 30 0 6 3 -1 5 -18 5 -16 0 -22 -2 -12 -5z"/>
<path d="M3390 1250 c-9 -6 -10 -10 -3 -10 6 0 15 5 18 10 8 12 4 12 -15 0z"/>
<path d="M3310 1216 c-25 -13 -56 -37 -70 -53 l-25 -28 31 28 c16 15 33 27 36
27 3 0 26 11 49 25 56 31 39 32 -21 1z"/>
<path d="M2919 1221 c-1 -3 -1 -9 0 -13 1 -10 -56 -20 -78 -13 -14 4 -20 0
-24 -17 -4 -12 -2 -27 3 -32 7 -7 10 -4 10 7 0 11 12 18 38 22 52 9 82 22 82
38 0 13 -29 20 -31 8z"/>
<path d="M3508 1222 c-32 -2 -58 -7 -58 -11 0 -7 110 -3 119 5 8 8 -5 9 -61 6z"/>
<path d="M2970 1167 c-31 -14 -55 -35 -72 -64 -26 -40 -108 -102 -137 -103 -7
0 -24 -11 -37 -25 -13 -14 -31 -25 -42 -25 -10 0 -31 -13 -47 -30 -26 -28 -24
-45 3 -18 6 6 22 12 35 14 13 1 41 18 63 38 21 19 58 45 82 57 53 28 90 64 98
96 5 17 22 31 60 48 30 13 54 26 54 29 0 9 -12 6 -60 -17z"/>
<path d="M3390 1170 c-23 -7 -23 -8 -3 -9 12 -1 25 4 28 9 3 6 5 10 3 9 -2 -1
-14 -5 -28 -9z"/>
<path d="M2128 1163 c7 -3 16 -2 19 1 4 3 -2 6 -13 5 -11 0 -14 -3 -6 -6z"/>
<path d="M2167 1150 c4 -4 33 -11 63 -14 33 -4 51 -3 45 2 -6 6 -34 12 -63 14
-29 3 -50 2 -45 -2z"/>
<path d="M2095 1130 c-8 -13 5 -13 25 0 13 8 13 10 -2 10 -9 0 -20 -4 -23 -10z"/>
<path d="M2384 1120 c0 -13 6 -20 16 -18 8 2 15 10 15 18 0 8 -7 16 -15 18
-10 2 -16 -5 -16 -18z"/>
<path d="M2712 1123 c4 -47 -2 -63 -24 -63 -12 0 -18 3 -15 7 8 7 -11 33 -23
33 -5 0 -6 -9 -3 -19 4 -15 -4 -22 -34 -32 l-38 -14 40 -5 c22 -3 58 0 80 6
22 6 47 9 55 6 12 -4 11 -1 -2 15 -10 11 -18 34 -18 51 0 18 -4 32 -10 32 -5
0 -9 -8 -8 -17z"/>
<path d="M2045 1110 c-8 -13 5 -13 25 0 13 8 13 10 -2 10 -9 0 -20 -4 -23 -10z"/>
<path d="M2792 1099 c-12 -5 -22 -11 -22 -13 0 -3 7 -3 15 1 9 3 21 -2 28 -11
11 -15 13 -15 24 3 10 16 9 20 -5 23 -10 3 -28 1 -40 -3z"/>
<path d="M3128 1094 c-38 -20 -36 -28 2 -9 17 9 30 18 30 20 0 7 -1 6 -32 -11z"/>
<path d="M3230 1090 c-12 -8 -9 -10 13 -10 16 0 26 4 22 10 -8 12 -16 12 -35
0z"/>
<path d="M2393 1068 c-13 -6 -23 -15 -23 -20 0 -8 17 -1 50 22 20 13 1 12 -27
-2z"/>
<path d="M3068 1063 c-10 -2 -18 -9 -18 -14 0 -6 8 -5 20 1 11 6 20 13 20 15
0 3 -1 4 -2 4 -2 -1 -11 -3 -20 -6z"/>
<path d="M3012 1018 c-7 -7 -12 -20 -12 -30 0 -10 -6 -18 -13 -18 -8 0 -22 -9
-32 -20 -10 -11 -20 -18 -23 -16 -2 3 -16 -6 -31 -20 -14 -13 -44 -30 -65 -36
-22 -7 -59 -32 -84 -55 -27 -27 -53 -43 -68 -43 -13 0 -24 -5 -24 -11 0 -22
64 1 100 36 19 18 58 45 86 59 27 14 67 39 88 56 22 16 47 30 57 30 13 0 19 7
19 21 0 11 5 29 10 40 12 22 9 24 -8 7z"/>
<path d="M3098 1013 c7 -3 16 -2 19 1 4 3 -2 6 -13 5 -11 0 -14 -3 -6 -6z"/>
<path d="M2140 945 c-36 -19 -62 -34 -58 -35 11 0 138 59 138 65 0 10 -15 4
-80 -30z"/>
<path d="M2535 960 c-18 -8 -17 -9 8 -9 15 -1 27 4 27 9 0 12 -8 12 -35 0z"/>
<path d="M3133 933 c-57 -5 -55 -18 2 -18 25 0 45 3 45 7 0 4 15 9 33 11 l32
4 -35 0 c-19 0 -54 -2 -77 -4z"/>
<path d="M2040 900 c-8 -5 -10 -10 -5 -10 6 0 17 5 25 10 8 5 11 10 5 10 -5 0
-17 -5 -25 -10z"/>
<path d="M1992 881 c-11 -6 -9 -9 5 -13 12 -3 20 0 20 8 0 16 -6 17 -25 5z"/>
<path d="M2045 860 c-16 -7 -17 -9 -3 -9 9 -1 20 4 23 9 7 11 7 11 -20 0z"/>
<path d="M2590 734 c0 -7 -19 -28 -42 -48 -104 -89 -128 -117 -118 -136 6 -10
10 -28 10 -40 0 -12 11 -31 25 -42 32 -25 65 -89 65 -126 0 -27 -43 -82 -66
-82 -16 -1 -56 -39 -52 -51 6 -18 127 88 134 117 8 32 -21 96 -65 147 -22 24
-31 45 -31 69 0 30 9 42 75 101 41 36 90 71 110 78 46 17 44 24 -5 24 -23 0
-40 -5 -40 -11z"/>
<path d="M2535 600 c-3 -5 1 -10 10 -10 9 0 13 5 10 10 -3 6 -8 10 -10 10 -2
0 -7 -4 -10 -10z"/>
</g>
</svg>
