<?xml version="1.0" standalone="no"?>
<!DOCTYPE svg PUBLIC "-//W3C//DTD SVG 20010904//EN"
 "http://www.w3.org/TR/2001/REC-SVG-20010904/DTD/svg10.dtd">
<svg version="1.0" xmlns="http://www.w3.org/2000/svg"
 width="100.000000pt" height="100.000000pt" viewBox="0 0 100.000000 100.000000"
 preserveAspectRatio="xMidYMid meet">

<g transform="translate(0.000000,100.000000) scale(0.100000,-0.100000)"
fill="#000000" stroke="none">
<path d="M196 715 c-48 -43 -49 -45 -23 -45 26 0 27 -2 27 -60 l0 -60 55 0 55
0 0 60 c0 59 1 60 27 60 26 0 26 2 -22 45 -28 24 -54 44 -60 44 -5 0 -32 -20
-59 -44z"/>
<path d="M582 689 c-42 -12 -84 -71 -112 -154 -23 -70 -58 -115 -90 -115 -27
0 -59 34 -67 70 -5 29 -8 30 -59 30 -54 0 -54 0 -54 -32 0 -48 38 -116 79
-143 76 -49 156 -41 212 23 32 34 47 65 79 150 19 49 49 82 74 82 62 0 83 -98
34 -163 -16 -19 -28 -41 -28 -46 0 -16 65 -45 85 -38 26 11 58 96 59 158 1 69
-26 133 -69 159 -39 24 -100 32 -143 19z"/>
</g>
</svg>
